<?xml version="1.0" encoding="UTF-8"?>
<svg width="498px" height="498px" viewBox="0 0 498 498" version="1.1" xmlns="http://www.w3.org/2000/svg" xmlns:xlink="http://www.w3.org/1999/xlink">
    <!-- Generator: Sketch 41 (35326) - http://www.bohemiancoding.com/sketch -->
    <title>male02</title>
    <desc>Created with Sketch.</desc>
    <defs></defs>
    <g id="Page-1" stroke="none" stroke-width="1" fill="none" fill-rule="evenodd">
        <g id="male02">
            <g id="Layer_1">
                <g id="Group">
                    <path d="M497.079,249.006 C497.079,111.984 386.009,0.924 249.003,0.924 C111.991,0.924 0.921,111.984 0.921,249.006 C0.921,386.007 111.991,497.076 249.003,497.076 C386.009,497.076 497.079,386.007 497.079,249.006 L497.079,249.006 Z" id="Shape" fill="#337180"></path>
                    <path d="M248.666,334.321 C171.5,334.321 109.571,356.375 102.259,383.654 C99,395.812 95.297,418.846 92.133,441.179 C134.88,476.113 189.49,497.076 249.003,497.076 C308.512,497.076 363.119,476.113 405.865,441.18 C402.701,418.847 398.998,395.812 395.739,383.653 C388.427,356.375 325.832,334.321 248.666,334.321 L248.666,334.321 Z" id="Shape" fill="#261D17"></path>
                    <polygon id="Shape" fill="#969899" points="211.088 336.333 248.708 364.406 286.912 336.333 288.773 323.167 248.75 317.917 209.227 323.167"></polygon>
                    <path d="M211.088,336.333 C211.088,336.333 227.916,364.406 248.708,364.406 C269.5,364.406 286.912,336.333 286.912,336.333 L248.75,317.916 L211.088,336.333 L211.088,336.333 Z" id="Shape" fill="#7F3E09"></path>
                    <path d="M249.076,391 L286.832,336.333 C286.832,336.333 277.917,353.666 248.709,353.666 C219.5,353.666 211.166,336.333 211.166,336.333 L249.076,391 L249.076,391 Z" id="Shape" fill="#261D17"></path>
                    <path d="M287.89,283.039 L210.11,283.039 C222.246,319.627 211.088,336.333 211.088,336.333 L238,353.667 L260,353.667 L286.912,336.334 C286.912,336.333 275.754,319.627 287.89,283.039 L287.89,283.039 Z" id="Shape" fill="#E2A176"></path>
                    <path d="M306.666,338.713 L288.773,323.166 L248.979,353.666 C248.979,353.666 283.009,359.675 283.177,359.508 L306.666,338.713 L306.666,338.713 Z" id="Shape" fill="#F3FAFF"></path>
                    <path d="M191.333,338.713 L209.227,323.166 L248.98,353.666 C248.98,353.666 214.991,359.675 214.823,359.508 L191.333,338.713 L191.333,338.713 Z" id="Shape" fill="#F3FAFF"></path>
                    <path d="M337.253,176.096 C337.253,83.667 297.74,62.5 249.001,62.5 C200.26,62.5 160.747,83.667 160.747,176.096 C160.747,207.362 166.937,231.861 176.209,250.769 C196.605,292.367 231.909,306.905 249.001,306.905 C266.093,306.905 301.397,292.367 321.791,250.769 C331.062,231.861 337.253,207.362 337.253,176.096 L337.253,176.096 Z" id="Shape" fill="#F4B382"></path>
                    <path d="M204.923,121.638 C204.923,121.638 212.206,161.491 240.611,166.894 C240.611,166.894 231.143,138.525 231.872,127.718 C231.872,127.718 262.462,141.902 271.931,170.271 C271.931,170.271 275.572,154.736 270.474,131.095 C270.474,131.095 285.769,139.199 284.312,166.219 C284.312,166.219 295.965,161.49 296.694,145.955 C296.694,145.955 306.162,160.814 301.793,176.35 C301.793,176.35 303.979,179.727 308.348,172.297 C308.348,172.297 326.002,181 325.002,209.446 C325.002,209.446 343.458,186 337.752,162.165 C337.752,162.165 342.981,174.999 342.252,183.78 C342.252,183.78 346.949,164.191 341.852,141.226 C341.852,141.226 348.407,146.629 350.591,154.06 C350.591,154.06 358.604,138.524 338.209,125.014 C338.209,125.014 348.406,122.989 349.862,127.717 C349.862,127.717 344.763,102.725 329.468,95.97 C329.468,95.97 336.024,93.944 344.763,102.725 C344.763,102.725 341.122,83.812 319.273,77.733 C319.273,77.733 323.642,75.707 330.925,79.085 C330.925,79.085 325.099,66.926 306.89,62.873 C306.89,62.873 305.433,56.795 313.445,57.47 C313.445,57.47 297.423,50.04 282.128,49.364 C282.128,49.364 287.227,38.558 295.966,38.558 C295.966,38.558 274.844,32.479 260.278,40.583 C260.278,40.583 252.266,37.206 257.365,34.504 C257.365,34.504 218.035,33.153 215.85,54.093 C215.85,54.093 204.925,53.417 195.457,48.689 C195.457,48.689 185.988,55.444 194.728,63.549 C194.728,63.549 172.15,64.225 161.953,80.436 C161.953,80.436 167.052,78.41 173.606,79.085 C173.606,79.085 156.127,87.865 153.941,102.726 C153.941,102.726 159.039,100.7 164.866,101.374 C164.866,101.374 154.67,107.453 150.3,119.611 C150.3,119.611 154.67,118.26 161.225,117.586 C161.225,117.586 138.647,135.148 138.647,160.139 C138.647,160.139 147.387,146.63 152.485,146.63 C152.485,146.63 149.571,168.244 155.399,192.561 C155.399,192.561 159.04,181.079 162.682,181.754 C162.682,181.754 161.953,200.666 173.607,213.5 C173.607,213.5 173.607,169.596 181.618,168.919 C181.618,168.919 185.989,174.999 191.087,179.052 C191.084,179.052 181.615,125.691 204.923,121.638 L204.923,121.638 Z" id="Shape" fill="#261D17"></path>
                    <g transform="translate(171.000000, 177.000000)" id="Shape">
                        <g transform="translate(11.000000, 2.000000)">
                            <g>
                                <path d="M31,0.897 C14.247,0.897 0.667,3.826 0.667,24.744 C0.667,37.915 8.198,51.102 31,51.102 C47.751,51.102 61.332,37.915 61.332,24.744 C61.332,11.574 47.751,0.897 31,0.897 L31,0.897 Z M31,45.909 C12.916,45.909 6.942,35.45 6.942,25.004 C6.942,8.413 17.713,6.09 31,6.09 C44.286,6.09 55.057,14.558 55.057,25.004 C55.057,35.45 44.286,45.909 31,45.909 L31,45.909 Z" fill="#261D17"></path>
                                <path d="M31,6.091 C17.713,6.091 6.942,8.414 6.942,25.005 C6.942,35.451 12.916,45.91 31,45.91 C44.286,45.91 55.057,35.451 55.057,25.005 C55.057,14.559 44.286,6.091 31,6.091 L31,6.091 Z" fill="#F4C4A4"></path>
                            </g>
                            <g transform="translate(6.000000, 6.000000)">
                                <path d="M25,0.091 C11.713,0.091 0.942,2.414 0.942,19.005 C0.942,27.765 5.147,36.529 17.167,39.132 L31.563,0.81 C29.476,0.345 27.276,0.091 25,0.091 L25,0.091 Z" fill="#F4CCB0"></path>
                                <path d="M49.057,19.004 C49.057,10.348 41.659,3.056 31.564,0.809 L17.168,39.131 C19.482,39.632 22.081,39.908 25.001,39.908 C38.286,39.909 49.057,29.45 49.057,19.004 L49.057,19.004 Z" fill="#F4C4A4"></path>
                            </g>
                        </g>
                        <path d="M15.334,19.667 C14.524,19.667 13.718,19.342 13.126,18.699 L1.46,6.032 C0.338,4.813 0.416,2.916 1.635,1.793 C2.853,0.669 4.751,0.748 5.874,1.967 L17.54,14.634 C18.662,15.853 18.584,17.75 17.365,18.873 C16.789,19.405 16.061,19.667 15.334,19.667 L15.334,19.667 Z" fill="#261D17"></path>
                        <path d="M141.333,19.667 C142.143,19.667 142.949,19.342 143.541,18.699 L155.207,6.032 C156.329,4.813 156.251,2.916 155.032,1.793 C153.814,0.669 151.916,0.748 150.793,1.967 L139.127,14.634 C138.005,15.853 138.083,17.75 139.302,18.873 C139.878,19.405 140.606,19.667 141.333,19.667 L141.333,19.667 Z" fill="#261D17"></path>
                        <g transform="translate(83.000000, 2.000000)">
                            <path d="M0.668,24.745 C0.668,37.916 14.249,51.103 31,51.103 C53.802,51.103 61.333,37.916 61.333,24.745 C61.333,3.827 47.753,0.898 31,0.898 C14.249,0.897 0.668,11.574 0.668,24.745 L0.668,24.745 Z M6.943,25.004 C6.943,14.558 17.714,6.09 31,6.09 C44.287,6.09 55.058,8.413 55.058,25.004 C55.058,35.45 49.084,45.909 31,45.909 C17.714,45.909 6.943,35.45 6.943,25.004 L6.943,25.004 Z" fill="#261D17"></path>
                            <path d="M31,6.091 C44.287,6.091 55.058,8.414 55.058,25.005 C55.058,35.451 49.084,45.91 31,45.91 C17.714,45.91 6.943,35.451 6.943,25.005 C6.943,14.559 17.714,6.091 31,6.091 L31,6.091 Z" fill="#F4C4A4"></path>
                        </g>
                        <g transform="translate(89.000000, 8.000000)">
                            <path d="M25,0.091 C22.724,0.091 20.524,0.345 18.437,0.81 C8.342,3.057 0.944,10.349 0.944,19.005 C0.944,27.646 8.316,36.289 18.382,39.02 L32.854,0.499 C30.391,0.194 27.751,0.091 25,0.091 L25,0.091 Z" fill="#F4CCB0"></path>
                            <path d="M32.833,39.132 C44.853,36.529 49.058,27.764 49.058,19.005 C49.058,5.849 42.283,1.668 32.854,0.5 L18.382,39.021 C20.486,39.592 22.703,39.911 25,39.911 C27.92,39.909 30.519,39.633 32.833,39.132 L32.833,39.132 Z" fill="#F4C4A4"></path>
                        </g>
                        <g transform="translate(64.000000, 19.000000)" fill="#261D17">
                            <path d="M24.731,11.041 L5.782,11.042 C5.587,11.042 0.552,0.625 0.794,0.625 L27.197,0.625 C27.442,0.626 24.928,11.041 24.731,11.041 L24.731,11.041 Z"></path>
                            <path d="M23.066,11.167 C20.448,9.321 17.274,7.5 13.893,7.5 C11.316,7.5 8.862,8.885 6.681,9.989 C3.254,11.721 3.251,21.145 3.251,21.145 C5.206,17.062 9.386,14.425 13.893,14.425 C18.4,14.425 22.579,17.063 24.535,21.145 C24.535,21.145 25.574,12.935 23.066,11.167 L23.066,11.167 Z"></path>
                        </g>
                    </g>
                    <path d="M171.334,239.56 C162.895,241.003 156.982,239.708 152.222,211.862 C147.462,184.016 153.879,180.383 162.318,178.94 L171.334,239.56 L171.334,239.56 Z" id="Shape" fill="#F4B382"></path>
                    <path d="M326.766,239.56 C335.204,241.003 341.116,239.708 345.877,211.862 C350.638,184.016 344.219,180.383 335.781,178.94 L326.766,239.56 L326.766,239.56 Z" id="Shape" fill="#F4B382"></path>
                </g>
            </g>
        </g>
    </g>
</svg>