<?xml version="1.0" encoding="utf-8"?>
<!-- Generator: Adobe Illustrator 16.0.0, SVG Export Plug-In . SVG Version: 6.00 Build 0)  -->
<!DOCTYPE svg PUBLIC "-//W3C//DTD SVG 1.1//EN" "http://www.w3.org/Graphics/SVG/1.1/DTD/svg11.dtd">
<svg version="1.1" id="Layer_1" xmlns="http://www.w3.org/2000/svg" xmlns:xlink="http://www.w3.org/1999/xlink" x="0px" y="0px"
	 width="24px" height="24px" viewBox="0 0 24 24" enable-background="new 0 0 24 24" xml:space="preserve">
<g>
	<path d="M19.4,5H4l1.2-1.2c0.4-0.4,0.4-1,0-1.4s-1-0.4-1.4,0l-3,3c0,0,0,0,0,0C0.6,5.5,0.5,5.8,0.5,6c0,0,0,0,0,0
		c0,0.3,0.1,0.5,0.3,0.7l2.8,2.8c0.2,0.2,0.5,0.3,0.7,0.3s0.5-0.1,0.7-0.3c0.4-0.4,0.4-1,0-1.4L3.9,7h15.6c1.1,0,2,1,2,2.1v5.5
		c-0.6-0.3-1.3-0.6-2-0.6h-5.1l1.4-1.4c0.4-0.4,0.4-1,0-1.4s-1-0.4-1.4,0l-3,3c-0.2,0.2-0.3,0.5-0.3,0.7c0,0,0,0,0,0
		c0,0.2,0.1,0.5,0.3,0.7l2.8,2.8c0.2,0.2,0.5,0.3,0.7,0.3s0.5-0.1,0.7-0.3c0.4-0.4,0.4-1,0-1.4l-1-1h4.9c1.1,0,2,0.8,2,1.9V18v3
		c0,0.6,0.4,1,1,1s1-0.4,1-1v-3v-0.1V9C23.5,6.8,21.6,5,19.4,5z"/>
</g>
</svg>
