<?xml version="1.0" encoding="UTF-8"?>
<svg width="497px" height="497px" viewBox="0 0 497 497" version="1.1" xmlns="http://www.w3.org/2000/svg" xmlns:xlink="http://www.w3.org/1999/xlink">
    <!-- Generator: Sketch 43.2 (39069) - http://www.bohemiancoding.com/sketch -->
    <title>building2</title>
    <desc>Created with Sketch.</desc>
    <defs>
        <circle id="path-1" cx="248.7" cy="248.7" r="248.3"></circle>
    </defs>
    <g id="Page-1" stroke="none" stroke-width="1" fill="none" fill-rule="evenodd">
        <g id="building2">
            <circle id="Oval" fill="#FFFFFF" fill-rule="nonzero" cx="248.7" cy="248.7" r="248.3"></circle>
            <g id="Group-4">
                <mask id="mask-2" fill="white">
                    <use xlink:href="#path-1"></use>
                </mask>
                <use id="Mask" fill="#F7F7F7" fill-rule="nonzero" xlink:href="#path-1"></use>
                <g mask="url(#mask-2)">
                    <g transform="translate(38.000000, 116.000000)">
                        <g id="Group-3" transform="translate(0.000000, 62.962963)">
                            <path d="M157.754023,314.209402 L0,314.209402 L0,19.3732194 C0,8.71794872 8.71034483,0 19.3563218,0 L138.397701,0 C149.043678,0 157.754023,8.71794872 157.754023,19.3732194 L157.754023,314.209402 Z" id="Shape" fill="#DDD1CF" fill-rule="nonzero"></path>
                            <path d="M0,19.3732194 C0,8.71794872 8.71034483,0 19.3563218,0 L138.397701,0 C149.043678,0 157.754023,8.71794872 157.754023,19.3732194 L0,19.3732194 Z" id="Shape" fill="#A9A5A3" fill-rule="nonzero"></path>
                            <g id="Group-2" transform="translate(30.244253, 46.011396)" fill-rule="nonzero" fill="#FFFFFF">
                                <path d="M3.1454023,257.905983 C1.93563218,257.905983 0.725862069,256.937322 0.725862069,255.48433 L0.725862069,240.954416 C0.725862069,239.74359 1.93563218,238.774929 3.1454023,238.774929 L36.6560345,238.774929 C37.8658046,238.774929 39.0755747,239.985755 39.0755747,241.196581 L39.0755747,255.726496 C39.0755747,256.937322 37.8658046,257.905983 36.6560345,257.905983 L3.1454023,257.905983 Z M71.7393678,257.905983 C70.5295977,257.905983 69.3198276,256.937322 69.3198276,255.48433 L69.3198276,240.954416 C69.3198276,239.74359 70.5295977,238.774929 71.7393678,238.774929 L105.25,238.774929 C106.45977,238.774929 107.66954,239.985755 107.66954,241.196581 L107.66954,255.726496 C107.66954,256.937322 106.45977,257.905983 105.25,257.905983 L71.7393678,257.905983 Z" id="Shape"></path>
                                <path d="M71.7393678,219.159544 C70.5295977,219.159544 69.3198276,218.311966 69.3198276,216.980057 L69.3198276,202.450142 C69.3198276,201.239316 70.5295977,200.02849 71.7393678,200.02849 L80.2077586,200.02849 C81.4175287,200.02849 82.6272989,201.239316 82.6272989,202.450142 L82.6272989,216.980057 C82.6272989,218.190883 81.4175287,219.401709 80.2077586,219.401709 L71.7393678,219.401709 L71.7393678,219.159544 Z M96.7816092,219.159544 C95.5718391,219.159544 94.362069,218.311966 94.362069,216.980057 L94.362069,202.450142 C94.362069,201.239316 95.5718391,200.02849 96.7816092,200.02849 L105.25,200.02849 C106.45977,200.02849 107.66954,201.239316 107.66954,202.450142 L107.66954,216.980057 C107.66954,218.190883 106.45977,219.401709 105.25,219.401709 L96.7816092,219.401709 L96.7816092,219.159544 Z M3.1454023,219.159544 C1.93563218,219.159544 0.725862069,218.311966 0.725862069,216.980057 L0.725862069,202.450142 C0.725862069,201.239316 1.93563218,200.02849 3.1454023,200.02849 L11.6137931,200.02849 C12.8235632,200.02849 14.0333333,201.239316 14.0333333,202.450142 L14.0333333,216.980057 C14.0333333,218.190883 12.8235632,219.401709 11.6137931,219.401709 L3.1454023,219.401709 L3.1454023,219.159544 Z M28.0666667,219.159544 C26.8568966,219.159544 25.6471264,218.311966 25.6471264,216.980057 L25.6471264,202.450142 C25.6471264,201.239316 26.8568966,200.02849 28.0666667,200.02849 L36.5350575,200.02849 C37.7448276,200.02849 38.9545977,201.239316 38.9545977,202.450142 L38.9545977,216.980057 C38.9545977,218.190883 37.7448276,219.401709 36.5350575,219.401709 L28.0666667,219.401709 L28.0666667,219.159544 Z" id="Shape"></path>
                                <path d="M71.7393678,169.51567 C70.5295977,169.51567 69.3198276,168.304843 69.3198276,167.094017 L69.3198276,152.564103 C69.3198276,151.353276 70.5295977,150.14245 71.7393678,150.14245 L80.2077586,150.14245 C81.4175287,150.14245 82.6272989,151.353276 82.6272989,152.564103 L82.6272989,167.094017 C82.6272989,168.304843 81.4175287,169.51567 80.2077586,169.51567 L71.7393678,169.51567 Z M96.7816092,169.51567 C95.5718391,169.51567 94.362069,168.304843 94.362069,167.094017 L94.362069,152.564103 C94.362069,151.353276 95.5718391,150.14245 96.7816092,150.14245 L105.25,150.14245 C106.45977,150.14245 107.66954,151.353276 107.66954,152.564103 L107.66954,167.094017 C107.66954,168.304843 106.45977,169.51567 105.25,169.51567 L96.7816092,169.51567 Z M3.1454023,169.51567 C1.93563218,169.51567 0.725862069,168.304843 0.725862069,167.094017 L0.725862069,152.564103 C0.725862069,151.353276 1.93563218,150.14245 3.1454023,150.14245 L11.6137931,150.14245 C12.8235632,150.14245 14.0333333,151.353276 14.0333333,152.564103 L14.0333333,167.094017 C14.0333333,168.304843 12.8235632,169.51567 11.6137931,169.51567 L3.1454023,169.51567 Z M28.0666667,169.51567 C26.8568966,169.51567 25.6471264,168.304843 25.6471264,167.094017 L25.6471264,152.564103 C25.6471264,151.353276 26.8568966,150.14245 28.0666667,150.14245 L36.5350575,150.14245 C37.7448276,150.14245 38.9545977,151.353276 38.9545977,152.564103 L38.9545977,167.094017 C38.9545977,168.304843 37.7448276,169.51567 36.5350575,169.51567 L28.0666667,169.51567 Z" id="Shape"></path>
                                <path d="M71.7393678,119.387464 C70.5295977,119.387464 69.3198276,118.418803 69.3198276,116.965812 L69.3198276,102.435897 C69.3198276,101.225071 70.5295977,100.25641 71.7393678,100.25641 L80.2077586,100.25641 C81.4175287,100.25641 82.6272989,101.467236 82.6272989,102.678063 L82.6272989,117.207977 C82.6272989,118.418803 81.4175287,119.387464 80.2077586,119.387464 L71.7393678,119.387464 Z M96.7816092,119.387464 C95.5718391,119.387464 94.362069,118.418803 94.362069,116.965812 L94.362069,102.435897 C94.362069,101.225071 95.5718391,100.25641 96.7816092,100.25641 L105.25,100.25641 C106.45977,100.25641 107.66954,101.467236 107.66954,102.678063 L107.66954,117.207977 C107.66954,118.418803 106.45977,119.387464 105.25,119.387464 L96.7816092,119.387464 Z M3.1454023,119.387464 C1.93563218,119.387464 0.725862069,118.418803 0.725862069,116.965812 L0.725862069,102.435897 C0.725862069,101.225071 1.93563218,100.25641 3.1454023,100.25641 L11.6137931,100.25641 C12.8235632,100.25641 14.0333333,101.467236 14.0333333,102.678063 L14.0333333,117.207977 C14.0333333,118.418803 12.8235632,119.387464 11.6137931,119.387464 L3.1454023,119.387464 Z M28.0666667,119.387464 C26.8568966,119.387464 25.6471264,118.418803 25.6471264,116.965812 L25.6471264,102.435897 C25.6471264,101.225071 26.8568966,100.25641 28.0666667,100.25641 L36.5350575,100.25641 C37.7448276,100.25641 38.9545977,101.467236 38.9545977,102.678063 L38.9545977,117.207977 C38.9545977,118.418803 37.7448276,119.387464 36.5350575,119.387464 L28.0666667,119.387464 Z" id="Shape"></path>
                                <path d="M71.7393678,69.5014245 C70.5295977,69.5014245 69.3198276,68.2905983 69.3198276,67.0797721 L69.3198276,52.5498575 C69.3198276,51.3390313 70.5295977,50.3703704 71.7393678,50.3703704 L80.2077586,50.3703704 C81.4175287,50.3703704 82.6272989,51.3390313 82.6272989,52.7920228 L82.6272989,67.3219373 C82.6272989,68.5327635 81.4175287,69.5014245 80.2077586,69.5014245 L71.7393678,69.5014245 Z M96.7816092,69.5014245 C95.5718391,69.5014245 94.362069,68.2905983 94.362069,67.0797721 L94.362069,52.5498575 C94.362069,51.3390313 95.5718391,50.3703704 96.7816092,50.3703704 L105.25,50.3703704 C106.45977,50.3703704 107.66954,51.3390313 107.66954,52.7920228 L107.66954,67.3219373 C107.66954,68.5327635 106.45977,69.5014245 105.25,69.5014245 L96.7816092,69.5014245 Z M3.1454023,69.5014245 C1.93563218,69.5014245 0.725862069,68.2905983 0.725862069,67.0797721 L0.725862069,52.5498575 C0.725862069,51.3390313 1.93563218,50.3703704 3.1454023,50.3703704 L11.6137931,50.3703704 C12.8235632,50.3703704 14.0333333,51.3390313 14.0333333,52.7920228 L14.0333333,67.3219373 C14.0333333,68.5327635 12.8235632,69.5014245 11.6137931,69.5014245 L3.1454023,69.5014245 Z M28.0666667,69.5014245 C26.8568966,69.5014245 25.6471264,68.2905983 25.6471264,67.0797721 L25.6471264,52.5498575 C25.6471264,51.3390313 26.8568966,50.3703704 28.0666667,50.3703704 L36.5350575,50.3703704 C37.7448276,50.3703704 38.9545977,51.3390313 38.9545977,52.7920228 L38.9545977,67.3219373 C38.9545977,68.5327635 37.7448276,69.5014245 36.5350575,69.5014245 L28.0666667,69.5014245 Z" id="Shape"></path>
                                <path d="M71.7393678,19.6153846 C70.5295977,19.6153846 69.3198276,18.4045584 69.3198276,17.1937322 L69.3198276,2.66381766 C69.3198276,1.45299145 70.5295977,0.242165242 71.7393678,0.242165242 L80.2077586,0.242165242 C81.4175287,0.242165242 82.6272989,1.45299145 82.6272989,2.66381766 L82.6272989,17.1937322 C82.6272989,18.4045584 81.4175287,19.6153846 80.2077586,19.6153846 L71.7393678,19.6153846 Z M96.7816092,19.6153846 C95.5718391,19.6153846 94.362069,18.4045584 94.362069,17.1937322 L94.362069,2.66381766 C94.362069,1.45299145 95.5718391,0.242165242 96.7816092,0.242165242 L105.25,0.242165242 C106.45977,0.242165242 107.66954,1.45299145 107.66954,2.66381766 L107.66954,17.1937322 C107.66954,18.4045584 106.45977,19.6153846 105.25,19.6153846 L96.7816092,19.6153846 Z M3.1454023,19.6153846 C1.93563218,19.6153846 0.725862069,18.4045584 0.725862069,17.1937322 L0.725862069,2.66381766 C0.725862069,1.45299145 1.93563218,0.242165242 3.1454023,0.242165242 L11.6137931,0.242165242 C12.8235632,0.242165242 14.0333333,1.45299145 14.0333333,2.66381766 L14.0333333,17.1937322 C14.0333333,18.4045584 12.8235632,19.6153846 11.6137931,19.6153846 L3.1454023,19.6153846 Z M28.0666667,19.6153846 C26.8568966,19.6153846 25.6471264,18.4045584 25.6471264,17.1937322 L25.6471264,2.66381766 C25.6471264,1.45299145 26.8568966,0.242165242 28.0666667,0.242165242 L36.5350575,0.242165242 C37.7448276,0.242165242 38.9545977,1.45299145 38.9545977,2.66381766 L38.9545977,17.1937322 C38.9545977,18.4045584 37.7448276,19.6153846 36.5350575,19.6153846 L28.0666667,19.6153846 Z" id="Shape"></path>
                            </g>
                        </g>
                        <g id="Group" transform="translate(262.520115, 61.752137)">
                            <path d="M157.875,314.57265 L0,314.57265 L0,19.7364672 C0,9.08119658 8.83132184,0.363247863 19.3563218,0.363247863 L138.518678,0.363247863 C149.164655,0.363247863 157.875,9.08119658 157.875,19.7364672 L157.875,314.57265 Z" id="Shape" fill="#DAD1CE" fill-rule="nonzero"></path>
                            <path d="M0,19.7364672 C0,9.08119658 8.83132184,0.363247863 19.3563218,0.363247863 L138.518678,0.363247863 C149.164655,0.363247863 157.875,9.08119658 157.875,19.7364672 L0,19.7364672 Z" id="Shape" fill="#AAA5A3" fill-rule="nonzero"></path>
                            <path d="M27.8247126,307.549858 C26.6149425,307.549858 25.6471264,306.581197 25.6471264,305.128205 L25.6471264,290.598291 C25.6471264,289.387464 26.6149425,288.418803 28.0666667,288.418803 L61.4563218,288.418803 C62.666092,288.418803 63.8758621,289.62963 63.8758621,290.840456 L63.8758621,305.37037 C63.8758621,306.581197 62.666092,307.549858 61.4563218,307.549858 L27.8247126,307.549858 Z M96.5396552,307.549858 C95.3298851,307.549858 94.1201149,306.581197 94.1201149,305.128205 L94.1201149,290.598291 C94.1201149,289.387464 95.3298851,288.418803 96.5396552,288.418803 L130.050287,288.418803 C131.260057,288.418803 132.469828,289.62963 132.469828,290.840456 L132.469828,305.37037 C132.469828,306.581197 131.260057,307.549858 130.050287,307.549858 L96.5396552,307.549858 Z" id="Shape" fill="#FFFFFF" fill-rule="nonzero"></path>
                            <path d="M96.5396552,268.803419 C95.3298851,268.803419 94.1201149,267.95584 94.1201149,266.623932 L94.1201149,252.094017 C94.1201149,250.883191 95.3298851,249.672365 96.5396552,249.672365 L105.008046,249.672365 C106.45977,249.672365 107.427586,250.883191 107.427586,252.094017 L107.427586,266.623932 C107.427586,267.834758 106.45977,269.045584 105.008046,269.045584 L96.5396552,269.045584 L96.5396552,268.803419 Z M121.46092,268.803419 C120.251149,268.803419 119.041379,267.95584 119.041379,266.623932 L119.041379,252.094017 C119.041379,250.883191 120.251149,249.672365 121.46092,249.672365 L129.92931,249.672365 C131.381034,249.672365 132.348851,250.883191 132.348851,252.094017 L132.348851,266.623932 C132.348851,267.834758 131.381034,269.045584 129.92931,269.045584 L121.46092,269.045584 L121.46092,268.803419 Z M27.8247126,268.803419 C26.6149425,268.803419 25.4051724,267.95584 25.4051724,266.623932 L25.4051724,252.094017 C25.4051724,250.883191 26.6149425,249.672365 27.8247126,249.672365 L36.2931034,249.672365 C37.7448276,249.672365 38.7126437,250.883191 38.7126437,252.094017 L38.7126437,266.623932 C38.7126437,267.834758 37.7448276,269.045584 36.2931034,269.045584 L27.8247126,269.045584 L27.8247126,268.803419 Z M52.866954,268.803419 C51.6571839,268.803419 50.4474138,267.95584 50.4474138,266.623932 L50.4474138,252.094017 C50.4474138,250.883191 51.6571839,249.672365 52.866954,249.672365 L61.3353448,249.672365 C62.5451149,249.672365 63.7548851,250.883191 63.7548851,252.094017 L63.7548851,266.623932 C63.7548851,267.834758 62.5451149,269.045584 61.3353448,269.045584 L52.866954,269.045584 L52.866954,268.803419 Z" id="Shape" fill="#FFFFFF" fill-rule="nonzero"></path>
                            <path d="M96.5396552,219.159544 C95.3298851,219.159544 94.1201149,217.948718 94.1201149,216.737892 L94.1201149,202.207977 C94.1201149,200.997151 95.3298851,199.786325 96.5396552,199.786325 L105.008046,199.786325 C106.45977,199.786325 107.427586,200.997151 107.427586,202.207977 L107.427586,216.737892 C107.427586,217.948718 106.45977,219.159544 105.008046,219.159544 L96.5396552,219.159544 Z M121.46092,219.159544 C120.251149,219.159544 119.041379,217.948718 119.041379,216.737892 L119.041379,202.207977 C119.041379,200.997151 120.251149,199.786325 121.46092,199.786325 L129.92931,199.786325 C131.381034,199.786325 132.348851,200.997151 132.348851,202.207977 L132.348851,216.737892 C132.348851,217.948718 131.381034,219.159544 129.92931,219.159544 L121.46092,219.159544 Z M27.8247126,219.159544 C26.6149425,219.159544 25.4051724,217.948718 25.4051724,216.737892 L25.4051724,202.207977 C25.4051724,200.997151 26.6149425,199.786325 27.8247126,199.786325 L36.2931034,199.786325 C37.7448276,199.786325 38.7126437,200.997151 38.7126437,202.207977 L38.7126437,216.737892 C38.7126437,217.948718 37.7448276,219.159544 36.2931034,219.159544 L27.8247126,219.159544 Z M52.866954,219.159544 C51.6571839,219.159544 50.4474138,217.948718 50.4474138,216.737892 L50.4474138,202.207977 C50.4474138,200.997151 51.6571839,199.786325 52.866954,199.786325 L61.3353448,199.786325 C62.5451149,199.786325 63.7548851,200.997151 63.7548851,202.207977 L63.7548851,216.737892 C63.7548851,217.948718 62.5451149,219.159544 61.3353448,219.159544 L52.866954,219.159544 Z" id="Shape" fill="#FFFFFF" fill-rule="nonzero"></path>
                            <path d="M96.5396552,169.031339 C95.3298851,169.031339 94.1201149,168.062678 94.1201149,166.609687 L94.1201149,152.079772 C94.1201149,150.868946 95.3298851,149.900285 96.5396552,149.900285 L105.008046,149.900285 C106.45977,149.900285 107.427586,151.111111 107.427586,152.321937 L107.427586,166.851852 C107.427586,168.062678 106.45977,169.031339 105.008046,169.031339 L96.5396552,169.031339 Z M121.46092,169.031339 C120.251149,169.031339 119.041379,168.062678 119.041379,166.609687 L119.041379,152.079772 C119.041379,150.868946 120.251149,149.900285 121.46092,149.900285 L129.92931,149.900285 C131.381034,149.900285 132.348851,151.111111 132.348851,152.321937 L132.348851,166.851852 C132.348851,168.062678 131.381034,169.031339 129.92931,169.031339 L121.46092,169.031339 Z M27.8247126,169.031339 C26.6149425,169.031339 25.4051724,168.062678 25.4051724,166.609687 L25.4051724,152.079772 C25.4051724,150.868946 26.6149425,149.900285 27.8247126,149.900285 L36.2931034,149.900285 C37.7448276,149.900285 38.7126437,151.111111 38.7126437,152.321937 L38.7126437,166.851852 C38.7126437,168.062678 37.7448276,169.031339 36.2931034,169.031339 L27.8247126,169.031339 Z M52.866954,169.031339 C51.6571839,169.031339 50.4474138,168.062678 50.4474138,166.609687 L50.4474138,152.079772 C50.4474138,150.868946 51.6571839,149.900285 52.866954,149.900285 L61.3353448,149.900285 C62.5451149,149.900285 63.7548851,151.111111 63.7548851,152.321937 L63.7548851,166.851852 C63.7548851,168.062678 62.5451149,169.031339 61.3353448,169.031339 L52.866954,169.031339 Z" id="Shape" fill="#FFFFFF" fill-rule="nonzero"></path>
                            <path d="M96.5396552,119.145299 C95.3298851,119.145299 94.1201149,117.934473 94.1201149,116.723647 L94.1201149,102.193732 C94.1201149,100.982906 95.3298851,100.014245 96.5396552,100.014245 L105.008046,100.014245 C106.45977,100.014245 107.427586,100.982906 107.427586,102.435897 L107.427586,116.965812 C107.427586,118.176638 106.45977,119.145299 105.008046,119.145299 L96.5396552,119.145299 Z M121.46092,119.145299 C120.251149,119.145299 119.041379,117.934473 119.041379,116.723647 L119.041379,102.193732 C119.041379,100.982906 120.251149,100.014245 121.46092,100.014245 L129.92931,100.014245 C131.381034,100.014245 132.348851,100.982906 132.348851,102.435897 L132.348851,116.965812 C132.348851,118.176638 131.381034,119.145299 129.92931,119.145299 L121.46092,119.145299 Z M27.8247126,119.145299 C26.6149425,119.145299 25.4051724,117.934473 25.4051724,116.723647 L25.4051724,102.193732 C25.4051724,100.982906 26.6149425,100.014245 27.8247126,100.014245 L36.2931034,100.014245 C37.7448276,100.014245 38.7126437,100.982906 38.7126437,102.435897 L38.7126437,116.965812 C38.7126437,118.176638 37.7448276,119.145299 36.2931034,119.145299 L27.8247126,119.145299 Z M52.866954,119.145299 C51.6571839,119.145299 50.4474138,117.934473 50.4474138,116.723647 L50.4474138,102.193732 C50.4474138,100.982906 51.6571839,100.014245 52.866954,100.014245 L61.3353448,100.014245 C62.5451149,100.014245 63.7548851,100.982906 63.7548851,102.435897 L63.7548851,116.965812 C63.7548851,118.176638 62.5451149,119.145299 61.3353448,119.145299 L52.866954,119.145299 Z" id="Shape" fill="#FFFFFF" fill-rule="nonzero"></path>
                            <path d="M96.5396552,69.2592593 C95.3298851,69.2592593 94.1201149,68.048433 94.1201149,66.8376068 L94.1201149,52.3076923 C94.1201149,51.0968661 95.3298851,49.8860399 96.5396552,49.8860399 L105.008046,49.8860399 C106.45977,49.8860399 107.427586,51.0968661 107.427586,52.3076923 L107.427586,66.8376068 C107.427586,68.048433 106.45977,69.2592593 105.008046,69.2592593 L96.5396552,69.2592593 Z M121.46092,69.2592593 C120.251149,69.2592593 119.041379,68.048433 119.041379,66.8376068 L119.041379,52.3076923 C119.041379,51.0968661 120.251149,49.8860399 121.46092,49.8860399 L129.92931,49.8860399 C131.381034,49.8860399 132.348851,51.0968661 132.348851,52.3076923 L132.348851,66.8376068 C132.348851,68.048433 131.381034,69.2592593 129.92931,69.2592593 L121.46092,69.2592593 Z M27.8247126,69.2592593 C26.6149425,69.2592593 25.4051724,68.048433 25.4051724,66.8376068 L25.4051724,52.3076923 C25.4051724,51.0968661 26.6149425,49.8860399 27.8247126,49.8860399 L36.2931034,49.8860399 C37.7448276,49.8860399 38.7126437,51.0968661 38.7126437,52.3076923 L38.7126437,66.8376068 C38.7126437,68.048433 37.7448276,69.2592593 36.2931034,69.2592593 L27.8247126,69.2592593 Z M52.866954,69.2592593 C51.6571839,69.2592593 50.4474138,68.048433 50.4474138,66.8376068 L50.4474138,52.3076923 C50.4474138,51.0968661 51.6571839,49.8860399 52.866954,49.8860399 L61.3353448,49.8860399 C62.5451149,49.8860399 63.7548851,51.0968661 63.7548851,52.3076923 L63.7548851,66.8376068 C63.7548851,68.048433 62.5451149,69.2592593 61.3353448,69.2592593 L52.866954,69.2592593 Z" id="Shape" fill="#FFFFFF" fill-rule="nonzero"></path>
                            <g transform="translate(71.461121, 287.881197)" fill-rule="nonzero">
                                <path d="M0,2.42165242 C0,1.21082621 0.725862069,0.484330484 1.81465517,0.484330484 L13.3074713,0.484330484 C14.2752874,0.484330484 15.1221264,1.33190883 15.1221264,2.3005698 L15.1221264,26.517094 L0,26.517094 L0,2.42165242 Z" id="Shape" fill="#645348"></path>
                                <ellipse id="Oval" fill="#CDCCCB" cx="2.29856322" cy="13.6823362" rx="1" ry="1"></ellipse>
                            </g>
                        </g>
                        <g id="Group" transform="translate(106.459770, 0.000000)">
                            <path d="M212.91954,422.941595 L0.84683908,422.941595 L0.84683908,27.0014245 C0.84683908,12.47151 12.4606322,0.968660969 26.7359195,0.968660969 L186.788506,0.968660969 C201.063793,0.968660969 212.677586,12.5925926 212.677586,27.0014245 L212.677586,422.941595 L212.91954,422.941595 Z" id="Shape" fill="#C7B3AD" fill-rule="nonzero"></path>
                            <path d="M0.967816092,27.0014245 C0.967816092,12.47151 12.5816092,0.968660969 26.8568966,0.968660969 L186.909483,0.968660969 C201.18477,0.968660969 212.798563,12.5925926 212.798563,27.0014245 L0.84683908,27.0014245 L0.967816092,27.0014245 Z" id="Shape" fill="#A1938D" fill-rule="nonzero"></path>
                            <path d="M130.655172,356.951567 C128.71954,356.951567 127.267816,355.498575 127.267816,353.803419 L127.267816,334.430199 C127.267816,332.492877 128.71954,331.160969 130.534195,331.160969 L141.785057,331.160969 C143.599713,331.160969 144.93046,332.371795 144.93046,334.309117 L144.93046,353.924501 C144.93046,355.619658 143.478736,357.07265 141.66408,357.07265 L130.655172,357.07265 L130.655172,356.951567 Z M164.044828,356.951567 C162.230172,356.951567 160.778448,355.498575 160.778448,353.803419 L160.778448,334.430199 C160.778448,332.492877 161.988218,331.160969 163.923851,331.160969 L175.29569,331.160969 C177.110345,331.160969 178.441092,332.371795 178.441092,334.309117 L178.441092,353.924501 C178.441092,355.619658 177.231322,357.07265 175.29569,357.07265 L163.923851,357.07265 L164.044828,356.951567 Z M38.2287356,356.951567 C36.5350575,356.951567 35.0833333,355.498575 35.0833333,353.803419 L35.0833333,334.430199 C35.0833333,332.492877 36.5350575,331.160969 38.2287356,331.160969 L49.7215517,331.160969 C51.5362069,331.160969 52.987931,332.371795 52.987931,334.309117 L52.987931,353.924501 C52.987931,355.619658 51.5362069,357.07265 49.8425287,357.07265 L38.4706897,357.07265 L38.2287356,356.951567 Z M71.7393678,356.951567 C70.0456897,356.951567 68.5939655,355.498575 68.5939655,353.803419 L68.5939655,334.430199 C68.5939655,332.492877 70.0456897,331.160969 71.7393678,331.160969 L83.2321839,331.160969 C84.9258621,331.160969 86.3775862,332.371795 86.3775862,334.309117 L86.3775862,353.924501 C86.3775862,355.619658 84.9258621,357.07265 83.2321839,357.07265 L71.7393678,357.07265 L71.7393678,356.951567 Z" id="Shape" fill="#FFFFFF" fill-rule="nonzero"></path>
                            <path d="M130.655172,294.7151 C128.71954,294.7151 127.267816,293.262108 127.267816,291.566952 L127.267816,272.193732 C127.267816,270.25641 128.71954,268.924501 130.534195,268.924501 L141.785057,268.924501 C143.599713,268.924501 144.93046,270.377493 144.93046,272.193732 L144.93046,291.566952 C144.93046,293.383191 143.478736,294.836182 141.66408,294.836182 L130.655172,294.836182 L130.655172,294.7151 Z M164.044828,294.7151 C162.230172,294.7151 160.778448,293.262108 160.778448,291.566952 L160.778448,272.193732 C160.778448,270.25641 161.988218,268.924501 163.923851,268.924501 L175.29569,268.924501 C177.110345,268.924501 178.441092,270.377493 178.441092,272.193732 L178.441092,291.566952 C178.441092,293.383191 177.231322,294.836182 175.29569,294.836182 L163.923851,294.836182 L164.044828,294.7151 Z M38.2287356,294.7151 C36.5350575,294.7151 35.0833333,293.262108 35.0833333,291.566952 L35.0833333,272.193732 C35.0833333,270.25641 36.5350575,268.924501 38.2287356,268.924501 L49.7215517,268.924501 C51.5362069,268.924501 52.987931,270.377493 52.987931,272.193732 L52.987931,291.566952 C52.987931,293.383191 51.5362069,294.836182 49.8425287,294.836182 L38.4706897,294.836182 L38.2287356,294.7151 Z M71.7393678,294.7151 C70.0456897,294.7151 68.5939655,293.262108 68.5939655,291.566952 L68.5939655,272.193732 C68.5939655,270.25641 70.0456897,268.924501 71.7393678,268.924501 L83.2321839,268.924501 C84.9258621,268.924501 86.3775862,270.377493 86.3775862,272.193732 L86.3775862,291.566952 C86.3775862,293.383191 84.9258621,294.836182 83.2321839,294.836182 L71.7393678,294.836182 L71.7393678,294.7151 Z" id="Shape" fill="#FFFFFF" fill-rule="nonzero"></path>
                            <path d="M130.655172,227.635328 C128.71954,227.635328 127.267816,226.182336 127.267816,224.366097 L127.267816,204.992877 C127.267816,203.176638 128.71954,201.723647 130.534195,201.723647 L141.785057,201.723647 C143.599713,201.723647 144.93046,203.176638 144.93046,204.992877 L144.93046,224.366097 C144.93046,226.182336 143.478736,227.635328 141.66408,227.635328 L130.655172,227.635328 Z M164.044828,227.635328 C162.230172,227.635328 160.778448,226.182336 160.778448,224.366097 L160.778448,204.992877 C160.778448,203.176638 161.988218,201.723647 163.923851,201.723647 L175.29569,201.723647 C177.110345,201.723647 178.441092,203.176638 178.441092,204.992877 L178.441092,224.366097 C178.441092,226.182336 177.231322,227.635328 175.29569,227.635328 L163.923851,227.635328 L164.044828,227.635328 Z M38.2287356,227.635328 C36.5350575,227.635328 35.0833333,226.182336 35.0833333,224.366097 L35.0833333,204.992877 C35.0833333,203.176638 36.5350575,201.723647 38.2287356,201.723647 L49.7215517,201.723647 C51.5362069,201.723647 52.987931,203.176638 52.987931,204.992877 L52.987931,224.366097 C52.987931,226.182336 51.5362069,227.635328 49.8425287,227.635328 L38.4706897,227.635328 L38.2287356,227.635328 Z M71.7393678,227.635328 C70.0456897,227.635328 68.5939655,226.182336 68.5939655,224.366097 L68.5939655,204.992877 C68.5939655,203.176638 70.0456897,201.723647 71.7393678,201.723647 L83.2321839,201.723647 C84.9258621,201.723647 86.3775862,203.176638 86.3775862,204.992877 L86.3775862,224.366097 C86.3775862,226.182336 84.9258621,227.635328 83.2321839,227.635328 L71.7393678,227.635328 Z" id="Shape" fill="#FFFFFF" fill-rule="nonzero"></path>
                            <path d="M130.655172,160.555556 C128.71954,160.555556 127.267816,159.102564 127.267816,157.286325 L127.267816,137.67094 C127.267816,135.975783 128.71954,134.522792 130.534195,134.522792 L141.785057,134.522792 C143.599713,134.522792 144.93046,135.975783 144.93046,137.67094 L144.93046,157.04416 C144.93046,158.981481 143.478736,160.434473 141.66408,160.434473 L130.655172,160.434473 L130.655172,160.555556 Z M164.044828,160.555556 C162.230172,160.555556 160.778448,159.102564 160.778448,157.286325 L160.778448,137.67094 C160.778448,135.975783 161.988218,134.522792 163.923851,134.522792 L175.29569,134.522792 C177.110345,134.522792 178.441092,135.975783 178.441092,137.67094 L178.441092,157.04416 C178.441092,158.981481 177.231322,160.434473 175.29569,160.434473 L163.923851,160.434473 L164.044828,160.555556 Z M38.2287356,160.555556 C36.5350575,160.555556 35.0833333,159.102564 35.0833333,157.286325 L35.0833333,137.67094 C35.0833333,135.975783 36.5350575,134.522792 38.2287356,134.522792 L49.7215517,134.522792 C51.5362069,134.522792 52.987931,135.975783 52.987931,137.67094 L52.987931,157.04416 C52.987931,158.981481 51.5362069,160.434473 49.8425287,160.434473 L38.4706897,160.434473 L38.2287356,160.555556 Z M71.7393678,160.555556 C70.0456897,160.555556 68.5939655,159.102564 68.5939655,157.286325 L68.5939655,137.67094 C68.5939655,135.975783 70.0456897,134.522792 71.7393678,134.522792 L83.2321839,134.522792 C84.9258621,134.522792 86.3775862,135.975783 86.3775862,137.67094 L86.3775862,157.04416 C86.3775862,158.981481 84.9258621,160.434473 83.2321839,160.434473 L71.7393678,160.434473 L71.7393678,160.555556 Z" id="Shape" fill="#FFFFFF" fill-rule="nonzero"></path>
                            <path d="M130.655172,93.2336182 C128.71954,93.2336182 127.267816,92.022792 127.267816,90.2065527 L127.267816,70.8333333 C127.267816,69.017094 128.71954,67.5641026 130.534195,67.5641026 L141.785057,67.5641026 C143.599713,67.5641026 144.93046,69.017094 144.93046,70.7122507 L144.93046,90.0854701 C144.93046,92.022792 143.478736,93.3547009 141.66408,93.3547009 L130.655172,93.3547009 L130.655172,93.2336182 Z M164.044828,93.2336182 C162.230172,93.2336182 160.778448,92.022792 160.778448,90.2065527 L160.778448,70.8333333 C160.778448,69.017094 161.988218,67.5641026 163.923851,67.5641026 L175.29569,67.5641026 C177.110345,67.5641026 178.441092,69.017094 178.441092,70.7122507 L178.441092,90.0854701 C178.441092,92.022792 177.231322,93.3547009 175.29569,93.3547009 L163.923851,93.3547009 L164.044828,93.2336182 Z M38.2287356,93.2336182 C36.5350575,93.2336182 35.0833333,92.022792 35.0833333,90.2065527 L35.0833333,70.8333333 C35.0833333,69.017094 36.5350575,67.5641026 38.2287356,67.5641026 L49.7215517,67.5641026 C51.5362069,67.5641026 52.987931,69.017094 52.987931,70.7122507 L52.987931,90.0854701 C52.987931,92.022792 51.5362069,93.3547009 49.8425287,93.3547009 L38.4706897,93.3547009 L38.2287356,93.2336182 Z M71.7393678,93.2336182 C70.0456897,93.2336182 68.5939655,92.022792 68.5939655,90.2065527 L68.5939655,70.8333333 C68.5939655,69.017094 70.0456897,67.5641026 71.7393678,67.5641026 L83.2321839,67.5641026 C84.9258621,67.5641026 86.3775862,69.017094 86.3775862,70.7122507 L86.3775862,90.0854701 C86.3775862,92.022792 84.9258621,93.3547009 83.2321839,93.3547009 L71.7393678,93.3547009 L71.7393678,93.2336182 Z" id="Shape" fill="#FFFFFF" fill-rule="nonzero"></path>
                        </g>
                    </g>
                </g>
            </g>
        </g>
    </g>
</svg>