<svg xmlns="http://www.w3.org/2000/svg" width="498" height="498">
  <g fill="none" fill-rule="evenodd">
    <circle cx="248.7" cy="248.7" r="248.3" fill="#E4E4E4"/>
    <path fill="#6D6868" d="M203 384.8H72.6V141.3c0-8.8 7.2-16 16-16H187c8.8 0 16 7.2 16 16v243.5z"/>
    <path fill="#5F5E5E" d="M72.6 141.3c0-8.8 7.2-16 16-16H187c8.8 0 16 7.2 16 16H72.6z"/>
    <path fill="#E1E0E0" d="M95.6 379c-1 0-2-.8-2-2v-12c0-1 1-1.8 2-1.8h27.7c1 0 2 1 2 2v12c0 1-1 1.8-2 1.8H95.6zM152.3 379c-1 0-2-.8-2-2v-12c0-1 1-1.8 2-1.8H180c1 0 2 1 2 2v12c0 1-1 1.8-2 1.8h-27.7z"/>
    <g fill="#E1E0E0">
      <path d="M152.3 347c-1 0-2-.7-2-1.8v-12c0-1 1-2 2-2h7c1 0 2 1 2 2v12c0 1-1 2-2 2h-7zM173 347c-1 0-2-.7-2-1.8v-12c0-1 1-2 2-2h7c1 0 2 1 2 2v12c0 1-1 2-2 2h-7zM95.6 347c-1 0-2-.7-2-1.8v-12c0-1 1-2 2-2h7c1 0 2 1 2 2v12c0 1-1 2-2 2h-7zM116.2 347c-1 0-2-.7-2-1.8v-12c0-1 1-2 2-2h7c1 0 2 1 2 2v12c0 1-1 2-2 2h-7z"/>
    </g>
    <g fill="#E1E0E0">
      <path d="M152.3 306c-1 0-2-1-2-2v-12c0-1 1-2 2-2h7c1 0 2 1 2 2v12c0 1-1 2-2 2h-7zM173 306c-1 0-2-1-2-2v-12c0-1 1-2 2-2h7c1 0 2 1 2 2v12c0 1-1 2-2 2h-7zM95.6 306c-1 0-2-1-2-2v-12c0-1 1-2 2-2h7c1 0 2 1 2 2v12c0 1-1 2-2 2h-7zM116.2 306c-1 0-2-1-2-2v-12c0-1 1-2 2-2h7c1 0 2 1 2 2v12c0 1-1 2-2 2h-7z"/>
    </g>
    <g fill="#E1E0E0">
      <path d="M152.3 264.6c-1 0-2-.8-2-2v-12c0-1 1-1.8 2-1.8h7c1 0 2 1 2 2v12c0 1-1 1.8-2 1.8h-7zM173 264.6c-1 0-2-.8-2-2v-12c0-1 1-1.8 2-1.8h7c1 0 2 1 2 2v12c0 1-1 1.8-2 1.8h-7zM95.6 264.6c-1 0-2-.8-2-2v-12c0-1 1-1.8 2-1.8h7c1 0 2 1 2 2v12c0 1-1 1.8-2 1.8h-7zM116.2 264.6c-1 0-2-.8-2-2v-12c0-1 1-1.8 2-1.8h7c1 0 2 1 2 2v12c0 1-1 1.8-2 1.8h-7z"/>
    </g>
    <g fill="#E1E0E0">
      <path d="M152.3 223.4c-1 0-2-1-2-2v-12c0-1 1-1.8 2-1.8h7c1 0 2 .8 2 2v12c0 1-1 1.8-2 1.8h-7zM173 223.4c-1 0-2-1-2-2v-12c0-1 1-1.8 2-1.8h7c1 0 2 .8 2 2v12c0 1-1 1.8-2 1.8h-7zM95.6 223.4c-1 0-2-1-2-2v-12c0-1 1-1.8 2-1.8h7c1 0 2 .8 2 2v12c0 1-1 1.8-2 1.8h-7zM116.2 223.4c-1 0-2-1-2-2v-12c0-1 1-1.8 2-1.8h7c1 0 2 .8 2 2v12c0 1-1 1.8-2 1.8h-7z"/>
    </g>
    <g fill="#E1E0E0">
      <path d="M152.3 182.2c-1 0-2-1-2-2v-12c0-1 1-2 2-2h7c1 0 2 1 2 2v12c0 1-1 2-2 2h-7zM173 182.2c-1 0-2-1-2-2v-12c0-1 1-2 2-2h7c1 0 2 1 2 2v12c0 1-1 2-2 2h-7zM95.6 182.2c-1 0-2-1-2-2v-12c0-1 1-2 2-2h7c1 0 2 1 2 2v12c0 1-1 2-2 2h-7zM116.2 182.2c-1 0-2-1-2-2v-12c0-1 1-2 2-2h7c1 0 2 1 2 2v12c0 1-1 2-2 2h-7z"/>
    </g>
    <g transform="translate(129.402 360.756)">
      <path fill="#4D4C4C" d="M2 4C2 3 3 2.3 3.8 2.3H13c1 0 1.7.7 1.7 1.5v20H2V4z"/>
      <ellipse cx="4.1" cy="13.3" fill="#CDCCCB" rx=".8" ry=".8"/>
    </g>
    <g>
      <path fill="#6D6868" d="M419.5 384.8H289V141.3c0-8.8 7.3-16 16-16h98.5c8.8 0 16 7.2 16 16v243.5z"/>
      <path fill="#5F5E5E" d="M289 141.3c0-8.8 7.3-16 16-16h98.5c8.8 0 16 7.2 16 16H289z"/>
      <path fill="#E1E0E0" d="M312 379c-1 0-1.8-.8-1.8-2v-12c0-1 .8-1.8 2-1.8h27.6c1 0 2 1 2 2v12c0 1-1 1.8-2 1.8H312zM368.8 379c-1 0-2-.8-2-2v-12c0-1 1-1.8 2-1.8h27.7c1 0 2 1 2 2v12c0 1-1 1.8-2 1.8h-27.7z"/>
      <g fill="#E1E0E0">
        <path d="M368.8 347c-1 0-2-.7-2-1.8v-12c0-1 1-2 2-2h7c1.2 0 2 1 2 2v12c0 1-.8 2-2 2h-7zM389.4 347c-1 0-2-.7-2-1.8v-12c0-1 1-2 2-2h7c1.2 0 2 1 2 2v12c0 1-.8 2-2 2h-7zM312 347c-1 0-2-.7-2-1.8v-12c0-1 1-2 2-2h7c1.2 0 2 1 2 2v12c0 1-.8 2-2 2h-7zM332.7 347c-1 0-2-.7-2-1.8v-12c0-1 1-2 2-2h7c1 0 2 1 2 2v12c0 1-1 2-2 2h-7z"/>
      </g>
      <g fill="#E1E0E0">
        <path d="M368.8 306c-1 0-2-1-2-2v-12c0-1 1-2 2-2h7c1.2 0 2 1 2 2v12c0 1-.8 2-2 2h-7zM389.4 306c-1 0-2-1-2-2v-12c0-1 1-2 2-2h7c1.2 0 2 1 2 2v12c0 1-.8 2-2 2h-7zM312 306c-1 0-2-1-2-2v-12c0-1 1-2 2-2h7c1.2 0 2 1 2 2v12c0 1-.8 2-2 2h-7zM332.7 306c-1 0-2-1-2-2v-12c0-1 1-2 2-2h7c1 0 2 1 2 2v12c0 1-1 2-2 2h-7z"/>
      </g>
      <g fill="#E1E0E0">
        <path d="M368.8 264.6c-1 0-2-.8-2-2v-12c0-1 1-1.8 2-1.8h7c1.2 0 2 1 2 2v12c0 1-.8 1.8-2 1.8h-7zM389.4 264.6c-1 0-2-.8-2-2v-12c0-1 1-1.8 2-1.8h7c1.2 0 2 1 2 2v12c0 1-.8 1.8-2 1.8h-7zM312 264.6c-1 0-2-.8-2-2v-12c0-1 1-1.8 2-1.8h7c1.2 0 2 1 2 2v12c0 1-.8 1.8-2 1.8h-7zM332.7 264.6c-1 0-2-.8-2-2v-12c0-1 1-1.8 2-1.8h7c1 0 2 1 2 2v12c0 1-1 1.8-2 1.8h-7z"/>
      </g>
      <g fill="#E1E0E0">
        <path d="M368.8 223.4c-1 0-2-1-2-2v-12c0-1 1-1.8 2-1.8h7c1.2 0 2 .8 2 2v12c0 1-.8 1.8-2 1.8h-7zM389.4 223.4c-1 0-2-1-2-2v-12c0-1 1-1.8 2-1.8h7c1.2 0 2 .8 2 2v12c0 1-.8 1.8-2 1.8h-7zM312 223.4c-1 0-2-1-2-2v-12c0-1 1-1.8 2-1.8h7c1.2 0 2 .8 2 2v12c0 1-.8 1.8-2 1.8h-7zM332.7 223.4c-1 0-2-1-2-2v-12c0-1 1-1.8 2-1.8h7c1 0 2 .8 2 2v12c0 1-1 1.8-2 1.8h-7z"/>
      </g>
      <g fill="#E1E0E0">
        <path d="M368.8 182.2c-1 0-2-1-2-2v-12c0-1 1-2 2-2h7c1.2 0 2 1 2 2v12c0 1-.8 2-2 2h-7zM389.4 182.2c-1 0-2-1-2-2v-12c0-1 1-2 2-2h7c1.2 0 2 1 2 2v12c0 1-.8 2-2 2h-7zM312 182.2c-1 0-2-1-2-2v-12c0-1 1-2 2-2h7c1.2 0 2 1 2 2v12c0 1-.8 2-2 2h-7zM332.7 182.2c-1 0-2-1-2-2v-12c0-1 1-2 2-2h7c1 0 2 1 2 2v12c0 1-1 2-2 2h-7z"/>
      </g>
      <g transform="translate(345.07 360.756)">
        <path fill="#4D4C4C" d="M3 4c0-1 .6-1.6 1.5-1.6H14c.8 0 1.5.7 1.5 1.5v20H3V4z"/>
        <ellipse cx="4.9" cy="13.3" fill="#CDCCCB" rx=".8" ry=".8"/>
      </g>
    </g>
    <g>
      <path fill="#868787" d="M336 423.3H160.7v-327c0-12 9.6-21.5 21.4-21.5h132.3c11.8 0 21.4 9.6 21.4 21.5v327z"/>
      <path fill="#787878" d="M160.8 96.3c0-12 9.6-21.5 21.4-21.5h132.3c11.8 0 21.4 9.6 21.4 21.5H160.7z"/>
      <path fill="#E1E0E0" d="M191.6 415.7c-1.4 0-2.6-1.2-2.6-2.6v-16c0-1.5 1.2-2.7 2.6-2.7h37.2c1.5 0 2.6 1.2 2.6 2.7v16c0 1.5-1 2.7-2.6 2.7h-37.2zM268 415.7c-1.6 0-2.8-1.2-2.8-2.6v-16c0-1.5 1.2-2.7 2.7-2.7h37c1.5 0 2.6 1.2 2.6 2.7v16c0 1.5-1 2.7-2.6 2.7h-37z"/>
      <g fill="#E1E0E0">
        <path d="M268 372.8c-1.6 0-2.8-1.2-2.8-2.6v-16c0-1.6 1.2-2.7 2.7-2.7h9.3c1.5 0 2.6 1 2.6 2.6v16.2c0 1.4-1.2 2.6-2.7 2.6H268zM295.6 372.8c-1.5 0-2.7-1.2-2.7-2.6v-16c0-1.6 1-2.7 2.6-2.7h9.4c1.5 0 2.6 1 2.6 2.6v16.2c0 1.4-1 2.6-2.6 2.6h-9.4zM191.6 372.8c-1.4 0-2.6-1.2-2.6-2.6v-16c0-1.6 1.2-2.7 2.6-2.7h9.5c1.5 0 2.7 1 2.7 2.6v16.2c0 1.4-1.2 2.6-2.6 2.6h-9.4zM219.3 372.8c-1.4 0-2.6-1.2-2.6-2.6v-16c0-1.6 1.2-2.7 2.6-2.7h9.5c1.4 0 2.6 1 2.6 2.6v16.2c0 1.4-1.2 2.6-2.6 2.6h-9.5z"/>
      </g>
      <g fill="#E1E0E0">
        <path d="M268 317.4c-1.6 0-2.8-1.2-2.8-2.6v-16c0-1.6 1.2-2.7 2.7-2.7h9.3c1.5 0 2.6 1.2 2.6 2.7v16c0 1.5-1.2 2.7-2.7 2.7H268zM295.6 317.4c-1.5 0-2.7-1.2-2.7-2.6v-16c0-1.6 1-2.7 2.6-2.7h9.4c1.5 0 2.6 1.2 2.6 2.7v16c0 1.5-1 2.7-2.6 2.7h-9.4zM191.6 317.4c-1.4 0-2.6-1.2-2.6-2.6v-16c0-1.6 1.2-2.7 2.6-2.7h9.5c1.5 0 2.7 1.2 2.7 2.7v16c0 1.5-1.2 2.7-2.6 2.7h-9.4zM219.3 317.4c-1.4 0-2.6-1.2-2.6-2.6v-16c0-1.6 1.2-2.7 2.6-2.7h9.5c1.4 0 2.6 1.2 2.6 2.7v16c0 1.5-1.2 2.7-2.6 2.7h-9.5z"/>
      </g>
      <g fill="#E1E0E0">
        <path d="M268 262c-1.6 0-2.8-1.2-2.8-2.7v-16c0-1.5 1.2-2.7 2.7-2.7h9.3c1.5 0 2.6 1.2 2.6 2.7v16c0 1.5-1.2 2.7-2.7 2.7H268zM295.6 262c-1.5 0-2.7-1.2-2.7-2.7v-16c0-1.5 1-2.7 2.6-2.7h9.4c1.5 0 2.6 1.2 2.6 2.7v16c0 1.5-1 2.7-2.6 2.7h-9.4zM191.6 262c-1.4 0-2.6-1.2-2.6-2.7v-16c0-1.5 1.2-2.7 2.6-2.7h9.5c1.5 0 2.7 1.2 2.7 2.7v16c0 1.5-1.2 2.7-2.6 2.7h-9.4zM219.3 262c-1.4 0-2.6-1.2-2.6-2.7v-16c0-1.5 1.2-2.7 2.6-2.7h9.5c1.4 0 2.6 1.2 2.6 2.7v16c0 1.5-1.2 2.7-2.6 2.7h-9.5z"/>
      </g>
      <g fill="#E1E0E0">
        <path d="M268 206.6c-1.6 0-2.8-1.2-2.8-2.7v-16.2c0-1.4 1.2-2.6 2.7-2.6h9.3c1.5 0 2.6 1.2 2.6 2.6v16c0 1.6-1.2 2.8-2.7 2.8H268zM295.6 206.6c-1.5 0-2.7-1.2-2.7-2.7v-16.2c0-1.4 1-2.6 2.6-2.6h9.4c1.5 0 2.6 1.2 2.6 2.6v16c0 1.6-1 2.8-2.6 2.8h-9.4zM191.6 206.6c-1.4 0-2.6-1.2-2.6-2.7v-16.2c0-1.4 1.2-2.6 2.6-2.6h9.5c1.5 0 2.7 1.2 2.7 2.6v16c0 1.6-1.2 2.8-2.6 2.8h-9.4zM219.3 206.6c-1.4 0-2.6-1.2-2.6-2.7v-16.2c0-1.4 1.2-2.6 2.6-2.6h9.5c1.4 0 2.6 1.2 2.6 2.6v16c0 1.6-1.2 2.8-2.6 2.8h-9.5z"/>
      </g>
      <g fill="#E1E0E0">
        <path d="M268 151c-1.6 0-2.8-1-2.8-2.5v-16c0-1.5 1.2-2.7 2.7-2.7h9.3c1.5 0 2.6 1.2 2.6 2.6v16c0 1.6-1.2 2.7-2.7 2.7H268zM295.6 151c-1.5 0-2.7-1-2.7-2.5v-16c0-1.5 1-2.7 2.6-2.7h9.4c1.5 0 2.6 1.2 2.6 2.6v16c0 1.6-1 2.7-2.6 2.7h-9.4zM191.6 151c-1.4 0-2.6-1-2.6-2.5v-16c0-1.5 1.2-2.7 2.6-2.7h9.5c1.5 0 2.7 1.2 2.7 2.6v16c0 1.6-1.2 2.7-2.6 2.7h-9.4zM219.3 151c-1.4 0-2.6-1-2.6-2.5v-16c0-1.5 1.2-2.7 2.6-2.7h9.5c1.4 0 2.6 1.2 2.6 2.6v16c0 1.6-1.2 2.7-2.6 2.7h-9.5z"/>
      </g>
      <g transform="translate(239.197 392.126)">
        <path fill="#4D4C4C" d="M.7 4.2c0-1 1-2 2-2h12.8c1 0 2 1 2 2v27H.7v-27z"/>
        <ellipse cx="3.3" cy="16.8" fill="#CDCCCB" rx="1" ry="1"/>
      </g>
    </g>
  </g>
</svg>
