<?xml version="1.0" encoding="UTF-8"?>
<svg width="498px" height="498px" viewBox="0 0 498 498" version="1.1" xmlns="http://www.w3.org/2000/svg" xmlns:xlink="http://www.w3.org/1999/xlink">
    <!-- Generator: Sketch 41 (35326) - http://www.bohemiancoding.com/sketch -->
    <title>female05</title>
    <desc>Created with Sketch.</desc>
    <defs></defs>
    <g id="Page-1" stroke="none" stroke-width="1" fill="none" fill-rule="evenodd">
        <g id="female05">
            <g id="Layer_1">
                <g id="Group">
                    <path d="M497.079,249.006 C497.079,111.984 386.009,0.924 249.003,0.924 C111.991,0.924 0.921,111.984 0.921,249.006 C0.921,386.007 111.991,497.076 249.003,497.076 C386.009,497.076 497.079,386.007 497.079,249.006 L497.079,249.006 Z" id="Shape" fill="#AEB7C2"></path>
                    <path d="M338,357.735 C338,357.735 314.603,381.192 249,381.192 C183.397,381.192 160,357.735 160,357.735 L166.667,164.834 L331.236,159.154 L338,357.735 L338,357.735 Z" id="Shape" fill="#3A1D12"></path>
                    <path d="M248.666,334.321 C171.5,334.321 109.571,356.375 102.259,383.654 C99,395.812 95.297,418.846 92.133,441.179 C134.88,476.113 189.49,497.076 249.003,497.076 C308.512,497.076 363.119,476.113 405.865,441.18 C402.701,418.847 398.998,395.812 395.739,383.653 C388.427,356.375 325.832,334.321 248.666,334.321 L248.666,334.321 Z" id="Shape" fill="#1D1D1E"></path>
                    <g transform="translate(267.000000, 450.000000)">
                        <path d="M77,1.63 L0.5,1.63 L0.5,46.382 C27.423,44.397 53.15,38.121 77,28.223 L77,1.63 L77,1.63 Z" id="Shape" fill="#D6E7F2"></path>
                        <rect id="Rectangle-path" fill="#556877" x="0.5" y="0.766" width="76.5" height="6.223"></rect>
                        <g transform="translate(36.000000, 13.000000)" id="Shape" fill="#556877">
                            <path d="M33.336,3.766 L2.154,3.766 C1.279,3.766 0.569,3.057 0.569,2.181 C0.569,1.305 1.279,0.595 2.154,0.595 L33.336,0.595 C34.212,0.595 34.922,1.305 34.922,2.181 C34.922,3.056 34.212,3.766 33.336,3.766 L33.336,3.766 Z"></path>
                            <path d="M33.336,15.657 L2.154,15.657 C1.279,15.657 0.569,14.947 0.569,14.071 C0.569,13.196 1.279,12.486 2.154,12.486 L33.336,12.486 C34.212,12.486 34.922,13.196 34.922,14.071 C34.922,14.947 34.212,15.657 33.336,15.657 L33.336,15.657 Z"></path>
                            <path d="M2.154,24.377 C1.279,24.377 0.569,25.086 0.569,25.963 C0.569,26.838 1.279,27.548 2.154,27.548 L2.708,27.548 C6.806,26.59 10.867,25.536 14.883,24.377 L2.154,24.377 L2.154,24.377 Z"></path>
                        </g>
                        <rect id="Rectangle-path" fill="#556877" x="6.445" y="12.009" width="23.387" height="29.728"></rect>
                    </g>
                    <polygon id="Shape" fill="#D4D6D8" points="211.088 336.333 248.708 364.406 286.912 336.333 288.773 323.167 248.75 317.917 209.227 323.167"></polygon>
                    <g transform="translate(156.000000, 35.000000)" id="Shape">
                        <path d="M131.89,248.039 L54.11,248.039 C66.246,284.627 55.088,301.333 55.088,301.333 L82,314.25 L104,314.25 L130.912,301.333 C130.912,301.333 119.754,284.627 131.89,248.039 L131.89,248.039 Z" fill="#E2A379"></path>
                        <path d="M172.753,141.096 C172.753,48.667 137.046,27.5 93.002,27.5 C48.954,27.5 13.247,48.667 13.247,141.096 C13.247,172.362 18.842,196.861 27.22,215.769 C45.652,257.367 77.555,271.905 93.002,271.905 C108.447,271.905 140.35,257.367 158.781,215.769 C167.158,196.861 172.753,172.362 172.753,141.096 L172.753,141.096 Z" fill="#F4B382"></path>
                        <path d="M115.5,234 C115.5,234 105.426,239.25 93,239.25 C80.574,239.25 70.5,234 70.5,234 C70.5,232.64 77.641,224.409 82.439,223.687 C85.433,223.236 93,226.167 93,226.167 C93,226.167 100.461,223.228 103.432,223.667 C108.303,224.387 115.5,234 115.5,234 L115.5,234 Z" fill="#CC785E"></path>
                        <path d="M93,243.125 C80.574,243.125 70.5,234 70.5,234 C70.5,234 72.825,231.193 85.975,230.383 C88.192,230.246 91.076,232 93,232 C94.666,232 97.176,230.227 99.127,230.332 C112.783,231.065 115.5,234 115.5,234 C115.5,234 105.426,243.125 93,243.125 Z" fill="#C16952"></path>
                        <path d="M55.088,301.333 C55.088,301.333 71.916,329.406 92.708,329.406 C113.5,329.406 130.912,301.333 130.912,301.333 L92.75,282.916 L55.088,301.333 L55.088,301.333 Z" fill="#E2A379"></path>
                        <g transform="translate(4.000000, 143.000000)" fill="#F4B382">
                            <path d="M1.564,30.629 C5.867,55.788 11.209,56.958 18.832,55.654 L10.686,0.883 C3.062,2.187 -2.736,5.47 1.564,30.629 L1.564,30.629 Z"></path>
                            <path d="M167.412,0.883 L159.266,55.654 C166.891,56.958 172.233,55.788 176.534,30.629 C180.836,5.47 175.035,2.187 167.412,0.883 L167.412,0.883 Z"></path>
                        </g>
                        <path d="M175.666,145 C176.418,87 161.723,60.968 161.723,60.968 C148.691,35.915 126.216,27.5 93,27.5 C39.981,27.5 13.836,49.625 10.849,124.154 C10.606,130.219 10.438,136.81 10.5,143.584 C10.5,143.584 93,118.501 93,84.853 C93,118.5 175.666,145 175.666,145 L175.666,145 Z" fill="#3A1D12"></path>
                        <g>
                            <g transform="translate(9.000000, 9.000000)">
                                <path d="M165.333,101.5 C168.333,101.5 166.767,52.172 155.002,34.833 C142.355,16.199 107.82,0 84.16,0 C60.5,0 25.805,16.199 13.159,34.833 C1.393,52.172 -1.666,101.5 2.667,101.5 L165.333,101.5 L165.333,101.5 Z" fill="#E5AA17"></path>
                                <path d="M1.849,115.154 C1.849,115.154 37.253,118.775 84.091,118.775 C130.928,118.775 166.237,115.154 166.237,115.154 L166.405,95.496 L1.002,95.496 L1.849,115.154 L1.849,115.154 Z" fill="#EFC76C"></path>
                            </g>
                            <path d="M121.668,36.833 C121.668,43.461 108.831,118 93,118 L93,118 C77.168,118 64.333,43.461 64.333,36.833 L64.333,15.667 C64.333,9.04 77.168,5.834 93,5.834 L93,5.834 C108.831,5.834 121.668,9.04 121.668,15.667 L121.668,36.833 L121.668,36.833 Z" fill="#E5AA17"></path>
                            <path d="M64.232,36.833 C63.525,35.069 63.155,33.305 62.906,31.541 C62.748,30.659 62.718,29.777 62.623,28.895 C62.574,28.013 62.561,27.131 62.534,26.249 C62.566,25.367 62.572,24.485 62.628,23.603 C62.72,22.721 62.755,21.839 62.911,20.957 C63.162,19.193 63.529,17.429 64.232,15.665 L64.247,15.63 C64.267,15.58 64.322,15.556 64.372,15.576 C64.41,15.591 64.433,15.627 64.434,15.665 L64.534,26.248 L64.434,36.831 C64.433,36.884 64.389,36.927 64.336,36.927 C64.295,36.927 64.262,36.902 64.247,36.866 L64.232,36.833 L64.232,36.833 Z" fill="#C18D17"></path>
                            <path d="M121.768,15.667 C122.475,17.431 122.845,19.195 123.094,20.959 C123.252,21.841 123.282,22.723 123.377,23.605 C123.426,24.487 123.439,25.369 123.466,26.251 C123.434,27.133 123.428,28.015 123.372,28.897 C123.28,29.779 123.245,30.661 123.089,31.543 C122.838,33.307 122.471,35.071 121.768,36.835 L121.753,36.87 C121.733,36.92 121.678,36.944 121.628,36.924 C121.59,36.909 121.567,36.873 121.566,36.835 L121.466,26.252 L121.566,15.669 C121.567,15.616 121.611,15.573 121.664,15.573 C121.705,15.573 121.738,15.598 121.753,15.634 L121.768,15.667 L121.768,15.667 Z" fill="#C18D17"></path>
                            <path d="M121.333,102.667 C121.333,109.294 102.389,114.667 93,114.667 L93,114.667 C83.611,114.667 64.666,109.294 64.666,102.667 L76,12.334 C76,5.707 83.611,0.334 93,0.334 L93,0.334 C102.389,0.334 110,5.707 110,12.334 L121.333,102.667 L121.333,102.667 Z" fill="#F4B21E"></path>
                            <path d="M0.848,115 C0.848,115 40.56,119.061 93.097,119.061 C145.634,119.061 185.237,115 185.237,115 C185.237,115 181.639,93.011 171.825,93.011 C160.08,92.529 126.44,100.008 93,100 C60.043,99.992 27.28,92.49 15.858,92.95 C4.589,92.95 0.848,115 0.848,115 L0.848,115 Z" fill="#E5AA17"></path>
                            <path d="M10,95.5 C16.871,96.032 23.738,96.544 30.614,96.926 C37.484,97.367 44.359,97.743 51.236,98.029 C64.987,98.619 78.745,99.071 92.502,99.001 C106.259,99.087 120.017,98.659 133.768,98.065 C140.645,97.781 147.519,97.405 154.389,96.957 C161.265,96.57 168.131,96.049 175,95.5 C168.18,96.5 161.323,97.216 154.467,97.935 C147.604,98.582 140.732,99.131 133.852,99.602 C120.092,100.515 106.298,100.929 92.502,100.999 C78.704,100.902 64.912,100.479 51.152,99.558 C44.273,99.085 37.4,98.541 30.537,97.898 C23.681,97.187 16.823,96.48 10,95.5 L10,95.5 Z" fill="#C18D17"></path>
                        </g>
                        <g transform="translate(10.000000, 137.000000)" fill="#3A1D12">
                            <path d="M9.667,12 C9.24,9.301 9.177,6.834 9.248,4.853 C9.351,2.002 9.734,0.166 9.734,0.166 L0.359,3.666 C0.341,5.094 0.334,6.538 0.334,7.999 C0.334,7.999 1.346,7.674 3.133,7.055 C3.048,7.084 2.958,7.116 2.877,7.143 C4.165,9.333 5.78,12.695 7.334,17.665 C7.334,17.667 10.996,20.395 9.667,12 L9.667,12 Z"></path>
                            <path d="M156.791,4.875 C156.861,6.853 156.797,9.311 156.371,12.001 C155.043,20.395 158.705,17.668 158.705,17.668 C160.255,12.708 161.859,9.346 163.137,7.152 C164.756,7.709 165.666,8.001 165.666,8.001 C165.666,6.535 165.658,5.086 165.641,3.654 L156.304,0.168 C156.304,0.167 156.689,2.012 156.791,4.875"></path>
                        </g>
                    </g>
                    <path d="M249.293,444.333 C268.753,444.333 290.832,336.333 290.832,336.333 L248.889,349.25 L207.584,336.333 C207.584,336.333 229.832,444.333 249.293,444.333 L249.293,444.333 Z" id="Shape" fill="#C7C8C9"></path>
                    <path d="M249.293,444.333 L248.889,349.25 L203,336.333 C203,336.333 249.187,444.333 249.293,444.333 L249.293,444.333 Z" id="Shape" fill="#D4D6D8"></path>
                    <path d="M306.666,338.713 L288.773,323.166 L248.979,349.249 C248.979,349.249 283.009,359.675 283.177,359.508 L306.666,338.713 L306.666,338.713 Z" id="Shape" fill="#F3FAFF"></path>
                    <path d="M191.333,338.713 L209.227,323.166 L248.98,349.249 C248.98,349.249 214.991,359.675 214.823,359.508 L191.333,338.713 L191.333,338.713 Z" id="Shape" fill="#F3FAFF"></path>
                    <path d="M197.5,333.292 L185,339.73 L193,395 L209.334,391.333 L197.334,406 L249,459.416 L248.979,444.333 C248.979,444.333 214.99,359.676 214.822,359.509 L197.5,333.292 L197.5,333.292 Z" id="Shape" fill="#4A4A54"></path>
                    <path d="M300.5,333.292 L313,339.73 L305,395 L288.668,391.333 L300.668,406 L249,459.416 L249.021,444.333 C249.021,444.333 283.01,359.676 283.177,359.509 L300.5,333.292 L300.5,333.292 Z" id="Shape" fill="#4A4A54"></path>
                </g>
            </g>
        </g>
    </g>
</svg>