<?xml version="1.0" encoding="UTF-8"?>
<svg width="498px" height="498px" viewBox="0 0 498 498" version="1.1" xmlns="http://www.w3.org/2000/svg" xmlns:xlink="http://www.w3.org/1999/xlink">
    <!-- Generator: Sketch 41 (35326) - http://www.bohemiancoding.com/sketch -->
    <title>female02</title>
    <desc>Created with Sketch.</desc>
    <defs></defs>
    <g id="Page-1" stroke="none" stroke-width="1" fill="none" fill-rule="evenodd">
        <g id="female02">
            <g id="Layer_1">
                <g id="Group">
                    <path d="M497.079,249.006 C497.079,111.984 386.009,0.924 249.003,0.924 C111.991,0.924 0.921,111.984 0.921,249.006 C0.921,386.007 111.991,497.076 249.003,497.076 C386.009,497.076 497.079,386.007 497.079,249.006 L497.079,249.006 Z" id="Shape" fill="#337180"></path>
                    <path d="M248.666,334.321 C171.5,334.321 109.571,356.375 102.259,383.654 C99,395.812 95.298,418.846 92.133,441.179 C134.88,476.113 189.491,497.076 249.003,497.076 C308.512,497.076 363.12,476.113 405.866,441.18 C402.701,418.847 398.999,395.812 395.74,383.653 C388.427,356.375 325.832,334.321 248.666,334.321 L248.666,334.321 Z" id="Shape" fill="#4ABC96"></path>
                    <path d="M248.666,334.321 C171.5,334.321 109.571,356.375 102.259,383.654 C99,395.812 95.298,418.846 92.133,441.179 C134.88,476.113 189.491,497.076 249.003,497.076 C308.512,497.076 363.12,476.113 405.866,441.18 C402.701,418.847 398.999,395.812 395.74,383.653 C388.427,356.375 325.832,334.321 248.666,334.321 L248.666,334.321 Z" id="Shape" fill="#F9EFE8"></path>
                    <path d="M354.058,473.78 L328.287,343.002 C305.364,337.526 278.076,334.32 248.666,334.32 C219.741,334.32 192.957,337.419 170.388,342.73 C165.717,364.436 148.799,443.332 143.169,473.41 C175.27,488.579 211.142,497.076 249.003,497.076 C286.558,497.076 322.156,488.72 354.058,473.78 L354.058,473.78 Z" id="Shape" fill="#33333B"></path>
                    <g transform="translate(140.000000, 62.000000)" id="Shape">
                        <path d="M147.89,221.039 L70.11,221.039 C82.246,257.627 71.088,274.333 71.088,274.333 L98,280.396 L120,280.396 L146.912,274.334 C146.912,274.333 135.754,257.627 147.89,221.039 L147.89,221.039 Z" fill="#E2A379"></path>
                        <path d="M158.834,113.977 C54.735,189.417 62.838,256.319 75.834,287.469 C101.986,350.157 32.152,363.633 32.152,363.633 L30.216,364.606 C30.216,364.606 69.696,344.563 33.861,286.861 C16.054,258.188 -39.43,199.398 51.273,108.29 L158.834,113.977 L158.834,113.977 Z" fill="#602F0F"></path>
                        <path d="M188.753,114.096 C188.753,21.667 153.046,0.5 109.001,0.5 C64.954,0.5 29.247,21.667 29.247,114.096 C29.247,145.362 34.842,169.861 43.22,188.769 C61.652,230.367 93.555,244.905 109.001,244.905 C124.447,244.905 156.35,230.367 174.781,188.769 C183.158,169.861 188.753,145.362 188.753,114.096 L188.753,114.096 Z" fill="#F4B382"></path>
                        <path d="M131.5,207 C131.5,207 121.426,212.25 109,212.25 C96.574,212.25 86.5,207 86.5,207 C86.5,205.64 93.641,197.409 98.439,196.687 C101.433,196.236 109,199.167 109,199.167 C109,199.167 116.461,196.228 119.432,196.667 C124.303,197.387 131.5,207 131.5,207 L131.5,207 Z" fill="#E24444"></path>
                        <path d="M131.5,207 C131.5,207 121.426,216.125 109,216.125 C96.574,216.125 86.5,207 86.5,207 C86.5,207 88.825,204.193 101.975,203.383 C104.192,203.246 107.076,205 109,205 C110.666,205 113.176,203.227 115.127,203.332 C128.783,204.065 131.5,207 131.5,207 L131.5,207 Z" fill="#D33D3D"></path>
                        <path d="M109.076,425.5 L146.832,274.333 C146.832,274.333 137.917,291.666 108.709,291.666 C79.5,291.666 71.166,274.333 71.166,274.333 L109.076,425.5 L109.076,425.5 Z" fill="#E2A379"></path>
                        <polygon fill="#F9EFE8" points="132.179 333 85.879 333 109.076 425.5"></polygon>
                        <path d="M71.088,274.333 C71.088,274.333 87.916,302.406 108.708,302.406 C129.5,302.406 146.912,274.333 146.912,274.333 L108.75,255.916 L71.088,274.333 L71.088,274.333 Z" fill="#E2A379"></path>
                        <path d="M197.253,114.096 C197.253,21.668 157.741,0.5 109.001,0.5 L109.001,0.5 L109,0.5 C109,0.5 109,0.5 108.999,0.5 L108.999,0.5 C60.259,0.5 20.747,21.668 20.747,114.096 C20.747,114.096 108.918,91.5 108.918,57.852 C108.918,91.5 197.253,114.096 197.253,114.096 L197.253,114.096 Z" fill="#602F0F"></path>
                        <g transform="translate(20.000000, 116.000000)" fill="#F4B382">
                            <path d="M1.564,30.629 C5.867,55.788 11.209,56.958 18.832,55.654 L10.686,0.883 C3.062,2.187 -2.736,5.47 1.564,30.629 L1.564,30.629 Z"></path>
                            <path d="M167.412,0.883 L159.266,55.654 C166.891,56.958 172.233,55.788 176.534,30.629 C180.835,5.47 175.035,2.187 167.412,0.883 L167.412,0.883 Z"></path>
                        </g>
                        <path d="M20.747,114.096 C20.747,114.096 30,115.333 33.334,126 C33.334,126 36.996,128.728 35.667,120.333 C34.625,113.75 35.734,108.5 35.734,108.5 L20.747,114.096 L20.747,114.096 Z" fill="#602F0F"></path>
                        <path d="M197.291,114.096 C197.291,114.096 188.038,115.333 184.705,126 C184.705,126 181.043,128.728 182.371,120.333 C183.413,113.75 182.304,108.5 182.304,108.5 L197.291,114.096 L197.291,114.096 Z" fill="#602F0F"></path>
                        <path d="M8.953,245 C16.543,262.789 27.558,276.714 33.861,286.861 C69.697,344.563 30.216,364.606 30.216,364.606 L32.152,363.633 C32.152,363.633 101.986,350.157 75.834,287.469 C71.468,277.005 67.662,262.501 68.469,245 L8.953,245 L8.953,245 Z" fill="#602F0F"></path>
                    </g>
                </g>
            </g>
        </g>
    </g>
</svg>