<?xml version="1.0" encoding="UTF-8"?>
<svg width="498px" height="498px" viewBox="0 0 498 498" version="1.1" xmlns="http://www.w3.org/2000/svg" xmlns:xlink="http://www.w3.org/1999/xlink">
    <!-- Generator: Sketch 41 (35326) - http://www.bohemiancoding.com/sketch -->
    <title>female03</title>
    <desc>Created with Sketch.</desc>
    <defs></defs>
    <g id="Page-1" stroke="none" stroke-width="1" fill="none" fill-rule="evenodd">
        <g id="female03">
            <g id="Group">
                <path d="M249.003,0.924 C111.991,0.924 0.921,111.984 0.921,249.006 C0.921,386.007 111.991,497.076 249.003,497.076 C386.009,497.076 497.079,386.007 497.079,249.006 C497.079,111.984 386.009,0.924 249.003,0.924 Z" id="Shape" fill="#AEB7C2"></path>
                <g transform="translate(92.000000, 59.000000)">
                    <g transform="translate(118.000000, 224.000000)" id="Shape" fill="#E2A379">
                        <path d="M77.89,0.039 L0.11,0.039 C12.246,36.627 1.088,53.334 1.088,53.334 L28,59.396 L50,59.396 L76.912,53.334 C76.912,53.334 65.754,36.627 77.89,0.039 L77.89,0.039 Z"></path>
                        <path d="M39.076,108 C84,108 76.832,53.334 76.832,53.334 C76.832,53.334 67.917,70.667 38.709,70.667 C9.5,70.667 1.166,53.334 1.166,53.334 C1.166,53.334 -5.849,108 39.076,108 L39.076,108 Z"></path>
                    </g>
                    <polygon id="Shape" fill="#141414" points="258 350.013 56 350.013 68.666 95.025 244.059 74.501"></polygon>
                    <rect id="Rectangle-path" fill="#DEE0E2" x="114.004" y="266.832" width="85.992" height="25.001"></rect>
                    <path d="M156.666,275.32 C79.5,275.32 17.571,297.375 10.259,324.654 C7,336.812 3.297,359.845 0.133,382.178 C42.88,417.112 97.49,438.075 157.003,438.075 C216.512,438.075 271.119,417.112 313.865,382.179 C310.701,359.846 306.998,336.811 303.739,324.653 C296.427,297.375 233.832,275.32 156.666,275.32 L156.666,275.32 Z" id="Shape" fill="#295D66"></path>
                    <path d="M202.764,278.06 C188.281,276.288 172.793,275.321 156.666,275.321 C140.749,275.321 125.482,276.261 111.208,277.991 L157,369 L202.764,278.06 L202.764,278.06 Z" id="Shape" fill="#DADDE0"></path>
                    <path d="M77,299.088 L114.008,266.832 L145.958,330.732 C145.958,330.732 120.743,337.848 120.434,337.542 L77,299.088 L77,299.088 Z" id="Shape" fill="#DADDE0"></path>
                    <path d="M236.957,299.088 L199.949,266.832 L167.999,330.732 C167.999,330.732 193.214,337.848 193.523,337.542 L236.957,299.088 L236.957,299.088 Z" id="Shape" fill="#DADDE0"></path>
                    <path d="M157,354 L119.25,277.167 C119.25,277.167 128.5,264.75 156.667,264.75 C184.834,264.75 194.792,277.209 194.792,277.209 L157,354 L157,354 Z" id="Shape" fill="#E2A379"></path>
                    <path d="M195.89,224.039 L118.11,224.039 C130.246,260.627 119.088,277.334 119.088,277.334 C119.088,277.334 135.5,283.396 157,283.396 C178.5,283.396 194.912,277.334 194.912,277.334 C194.912,277.334 183.754,260.627 195.89,224.039 L195.89,224.039 Z" id="Shape" fill="#E2A379"></path>
                    <g transform="translate(68.000000, 0.000000)" id="Shape">
                        <path d="M168.753,117.096 C168.753,24.667 133.046,3.5 89.001,3.5 C44.954,3.5 9.247,24.667 9.247,117.096 C9.247,148.362 14.842,172.862 23.22,191.77 C41.652,233.368 73.555,247.906 89.001,247.906 C104.447,247.906 136.35,233.368 154.781,191.77 C163.158,172.861 168.753,148.362 168.753,117.096 L168.753,117.096 Z" fill="#F4B382"></path>
                        <path d="M129.555,13.021 C113.306,-4.105 77.819,0.589 77.819,0.589 L77.819,0.589 L77.817,0.589 L77.817,0.589 C9.052,0.589 1.942,74.498 1.942,74.498 L0.667,95.025 C0.667,109.275 8.239,126.828 15.668,144.334 C15.668,144.334 14.119,86.621 48.731,71.27 C83.342,55.918 140.816,59.6 138.377,41.842 C138.253,40.941 139.948,23.974 129.555,13.021 L129.555,13.021 Z" fill="#141414"></path>
                        <path d="M110.676,2.037 C121.252,-2.873 146.336,9.667 159.002,28.334 C165.732,38.253 173.547,53.336 176.059,74.501 C176.059,74.501 176.373,116.756 165.824,143.001 C165.824,143.001 135.669,55.667 102.706,18.436 C102.871,17.856 103.911,5.176 110.676,2.037 L110.676,2.037 Z" fill="#141414"></path>
                        <g transform="translate(0.000000, 119.000000)" fill="#F4B382">
                            <path d="M1.564,30.629 C5.867,55.787 11.209,56.957 18.832,55.654 L10.686,0.883 C3.062,2.188 -2.736,5.471 1.564,30.629 L1.564,30.629 Z"></path>
                            <path d="M167.412,0.883 L159.266,55.654 C166.891,56.957 172.233,55.787 176.534,30.629 C180.835,5.471 175.035,2.188 167.412,0.883 L167.412,0.883 Z"></path>
                        </g>
                        <path d="M115.666,205.666 C115.666,205.666 101.426,215.25 89,215.25 C76.574,215.25 62.334,205.666 62.334,205.666 C62.334,204.307 73.641,200.409 78.439,199.687 C81.433,199.236 89,202.166 89,202.166 C89,202.166 96.461,199.228 99.432,199.666 C104.303,200.387 115.666,205.666 115.666,205.666 L115.666,205.666 Z" fill="#CC785E"></path>
                        <path d="M115.666,205.666 C115.666,205.666 101.426,219.125 89,219.125 C76.574,219.125 62.334,205.666 62.334,205.666 C62.334,205.666 68.825,207.193 81.975,206.383 C84.192,206.246 87.076,208 89,208 C90.666,208 93.176,206.227 95.127,206.332 C108.783,207.064 115.666,205.666 115.666,205.666 L115.666,205.666 Z" fill="#C16952"></path>
                    </g>
                </g>
            </g>
        </g>
    </g>
</svg>