<?xml version="1.0" encoding="UTF-8"?>
<svg width="498px" height="498px" viewBox="0 0 498 498" version="1.1" xmlns="http://www.w3.org/2000/svg" xmlns:xlink="http://www.w3.org/1999/xlink">
    <!-- Generator: Sketch 41 (35326) - http://www.bohemiancoding.com/sketch -->
    <title>female04</title>
    <desc>Created with Sketch.</desc>
    <defs></defs>
    <g id="Page-1" stroke="none" stroke-width="1" fill="none" fill-rule="evenodd">
        <g id="female04">
            <g id="Layer_1">
                <g id="Group">
                    <path d="M497.079,249.006 C497.079,111.984 386.009,0.924 249.003,0.924 C111.991,0.924 0.921,111.984 0.921,249.006 C0.921,386.007 111.991,497.076 249.003,497.076 C386.009,497.076 497.079,386.007 497.079,249.006 L497.079,249.006 Z" id="Shape" fill="#9B9B9B"></path>
                    <path d="M248.666,334.321 C171.5,334.321 109.571,356.375 102.259,383.654 C99,395.812 95.297,418.846 92.133,441.179 C134.88,476.113 189.49,497.076 249.003,497.076 C308.512,497.076 363.119,476.113 405.865,441.18 C402.701,418.847 398.998,395.812 395.739,383.653 C388.427,356.375 325.832,334.321 248.666,334.321 L248.666,334.321 Z" id="Shape" fill="#334D5C"></path>
                    <path d="M249.003,497.076 C249.003,497.076 338.24,334.321 248.612,334.321 C158.984,334.321 249.003,497.076 249.003,497.076 L249.003,497.076 Z" id="Shape" fill="#E4E9ED"></path>
                    <polygon id="Shape" fill="#172023" points="248.969 361.396 233.25 369.338 248.969 394.938 264.688 369.338"></polygon>
                    <polygon id="Shape" fill="#C7C8C9" points="211.088 336.333 248.708 364.406 286.912 336.333 288.773 323.167 248.75 317.917 209.227 323.167"></polygon>
                    <g transform="translate(140.000000, 62.000000)" id="Shape">
                        <path d="M147.89,221.039 L70.11,221.039 C82.246,257.627 71.088,274.333 71.088,274.333 C71.088,274.333 87.916,302.406 108.708,302.406 C129.5,302.406 146.912,274.333 146.912,274.333 C146.912,274.333 135.754,257.627 147.89,221.039 L147.89,221.039 Z" fill="#E2A379"></path>
                        <path d="M109,231 C70.333,231 38.247,213.66 38.247,213.66 C38.247,213.66 -21,179 9,125 C16.189,112.06 27.5,96.333 27.5,87.478 L109,86.501 L109,231 L109,231 Z" fill="#3A1D12"></path>
                        <path d="M109.187,231 C147.854,231 179.94,213.66 179.94,213.66 C179.94,213.66 239.188,179 209.188,125 C201.999,112.06 190.688,96.333 190.688,87.478 L109.188,86.501 L109.188,231 L109.187,231 Z" fill="#3A1D12"></path>
                        <path d="M188.753,114.096 C188.753,21.667 153.046,0.5 109.001,0.5 C64.954,0.5 29.247,21.667 29.247,114.096 C29.247,145.362 34.842,169.861 43.22,188.769 C61.652,230.367 93.555,244.905 109.001,244.905 C124.447,244.905 156.35,230.367 174.781,188.769 C183.158,169.861 188.753,145.362 188.753,114.096 L188.753,114.096 Z" fill="#F4B382"></path>
                        <g transform="translate(20.000000, 116.000000)" fill="#F4B382">
                            <path d="M1.564,30.629 C5.867,55.788 11.209,56.958 18.832,55.654 L10.686,0.883 C3.062,2.187 -2.736,5.47 1.564,30.629 L1.564,30.629 Z"></path>
                            <path d="M167.412,0.883 L159.266,55.654 C166.891,56.958 172.233,55.788 176.534,30.629 C180.835,5.47 175.035,2.187 167.412,0.883 L167.412,0.883 Z"></path>
                        </g>
                        <path d="M191.666,118 C191.666,25.572 166.333,0.5 109,0.5 C51.667,0.5 26.334,25.572 26.334,118 L35.792,110.11 C81.608,110.11 120.719,83.166 149,57.853 C149,100.667 191.666,118 191.666,118 L191.666,118 Z" fill="#3A1D12"></path>
                        <path d="M135.666,202.667 C135.666,202.667 121.426,212.25 109,212.25 C96.574,212.25 82.334,202.667 82.334,202.667 C82.334,201.307 93.641,197.41 98.439,196.687 C101.433,196.236 109,199.167 109,199.167 C109,199.167 116.461,196.228 119.432,196.667 C124.303,197.387 135.666,202.667 135.666,202.667 L135.666,202.667 Z" fill="#CC785E"></path>
                        <path d="M135.666,202.667 C135.666,202.667 121.426,216.125 109,216.125 C96.574,216.125 82.334,202.667 82.334,202.667 C82.334,202.667 88.825,204.194 101.975,203.384 C104.192,203.247 107.076,205.001 109,205.001 C110.666,205.001 113.176,203.228 115.127,203.333 C128.783,204.065 135.666,202.667 135.666,202.667 L135.666,202.667 Z" fill="#C16952"></path>
                        <g transform="translate(26.000000, 110.000000)" fill="#3A1D12">
                            <path d="M9.667,12 C9.24,9.301 9.177,6.834 9.248,4.853 C9.351,2.002 9.734,0.166 9.734,0.166 L0.359,3.666 C0.341,5.094 0.334,6.538 0.334,7.999 C0.334,7.999 1.346,7.674 3.133,7.055 C3.048,7.084 2.958,7.116 2.877,7.143 C4.165,9.333 5.78,12.695 7.334,17.665 C7.334,17.667 10.996,20.395 9.667,12 L9.667,12 Z"></path>
                            <path d="M156.791,4.875 C156.861,6.853 156.797,9.311 156.371,12.001 C155.043,20.395 158.705,17.668 158.705,17.668 C160.255,12.708 161.859,9.346 163.137,7.152 C164.756,7.709 165.666,8.001 165.666,8.001 C165.666,6.535 165.658,5.086 165.641,3.654 L156.304,0.168 C156.304,0.167 156.689,2.012 156.791,4.875"></path>
                        </g>
                    </g>
                    <polygon id="Shape" fill="#D4D6D8" points="306.666 338.713 288.773 323.167 248.979 364.75 285.598 375.009"></polygon>
                    <polygon id="Shape" fill="#D4D6D8" points="191.333 338.713 209.227 323.167 248.979 364.75 212.402 375.009"></polygon>
                    <g transform="translate(165.000000, 333.000000)" id="Shape" fill="#2A3F49">
                        <polygon points="33.616 3.708 33.61 3.708"></polygon>
                        <path d="M32.5,0.292 L33.616,3.709 L83.979,157.834 L83.988,164.077 C77.324,164.077 70.723,163.81 64.192,163.294 L0.5,54.001 L20,5.5 L32.5,0.292 L32.5,0.292 Z"></path>
                        <path d="M147.422,5.259 C147.415,5.258 147.407,5.257 147.4,5.256 C147.407,5.257 147.415,5.258 147.422,5.259 L147.422,5.259 L147.422,5.259 Z"></path>
                        <path d="M140.838,4.463 C140.928,4.473 141.018,4.484 141.108,4.494 C141.018,4.484 140.928,4.474 140.838,4.463 L140.838,4.463 Z"></path>
                        <polygon points="134.362 3.774 134.362 3.774 134.372 3.775"></polygon>
                        <path d="M148,5.5 L147.423,5.259 C147.418,5.259 147.413,5.258 147.408,5.257 C147.413,5.258 147.418,5.258 147.422,5.259 L135.5,0.292 L134.362,3.775 L84.022,157.834 L84.013,164.077 C90.677,164.077 97.278,163.81 103.808,163.295 L167.5,54.001 L148,5.5 L148,5.5 Z"></path>
                    </g>
                    <path d="M249.021,490.833 L268.78,430.364 C268.488,426.656 268.206,423.277 267.943,420.365 C265.901,397.731 252.548,381.833 252.548,381.833 L249.031,381.833 L249.005,382.575 L249.005,381.833 L245.488,381.833 C245.488,381.833 232.134,397.731 230.092,420.365 C229.827,423.301 229.543,426.71 229.248,430.453 L248.978,490.832 L249.021,490.832 L249.021,490.833 Z" id="Shape" fill="#172023"></path>
                </g>
            </g>
        </g>
    </g>
</svg>