<?xml version="1.0" encoding="UTF-8"?>
<svg width="498px" height="498px" viewBox="0 0 498 498" version="1.1" xmlns="http://www.w3.org/2000/svg" xmlns:xlink="http://www.w3.org/1999/xlink">
    <!-- Generator: Sketch 41 (35326) - http://www.bohemiancoding.com/sketch -->
    <title>female01</title>
    <desc>Created with Sketch.</desc>
    <defs></defs>
    <g id="Page-1" stroke="none" stroke-width="1" fill="none" fill-rule="evenodd">
        <g id="female01">
            <g id="Layer_1">
                <g id="Group">
                    <path d="M497.079,249.006 C497.079,111.984 386.009,0.924 249.003,0.924 C111.991,0.924 0.921,111.984 0.921,249.006 C0.921,386.007 111.991,497.076 249.003,497.076 C386.009,497.076 497.079,386.007 497.079,249.006 L497.079,249.006 Z" id="Shape" fill="#337180"></path>
                    <path d="M338,357.735 C338,357.735 314.603,381.192 249,381.192 C183.397,381.192 160,357.735 160,357.735 L166.667,164.834 L331.236,159.154 L338,357.735 L338,357.735 Z" id="Shape" fill="#3A1D12"></path>
                    <path d="M248.666,334.321 C171.5,334.321 109.571,356.375 102.259,383.654 C99,395.812 95.297,418.846 92.133,441.179 C134.88,476.113 189.49,497.076 249.003,497.076 C308.512,497.076 363.119,476.113 405.865,441.18 C402.701,418.847 398.998,395.812 395.739,383.653 C388.427,356.375 325.832,334.321 248.666,334.321 L248.666,334.321 Z" id="Shape" fill="#1D1D1E"></path>
                    <g transform="translate(267.000000, 450.000000)">
                        <path d="M77,1.63 L0.5,1.63 L0.5,46.382 C27.423,44.397 53.15,38.121 77,28.223 L77,1.63 L77,1.63 Z" id="Shape" fill="#D6E7F2"></path>
                        <rect id="Rectangle-path" fill="#556877" x="0.5" y="0.766" width="76.5" height="6.223"></rect>
                        <g transform="translate(36.000000, 13.000000)" id="Shape" fill="#556877">
                            <path d="M33.336,3.766 L2.154,3.766 C1.279,3.766 0.569,3.057 0.569,2.181 C0.569,1.305 1.279,0.595 2.154,0.595 L33.336,0.595 C34.212,0.595 34.922,1.305 34.922,2.181 C34.922,3.056 34.212,3.766 33.336,3.766 L33.336,3.766 Z"></path>
                            <path d="M33.336,15.657 L2.154,15.657 C1.279,15.657 0.569,14.947 0.569,14.071 C0.569,13.196 1.279,12.486 2.154,12.486 L33.336,12.486 C34.212,12.486 34.922,13.196 34.922,14.071 C34.922,14.947 34.212,15.657 33.336,15.657 L33.336,15.657 Z"></path>
                            <path d="M2.154,24.377 C1.279,24.377 0.569,25.086 0.569,25.963 C0.569,26.838 1.279,27.548 2.154,27.548 L2.708,27.548 C6.806,26.59 10.867,25.536 14.883,24.377 L2.154,24.377 L2.154,24.377 Z"></path>
                        </g>
                        <rect id="Rectangle-path" fill="#556877" x="6.445" y="12.009" width="23.387" height="29.728"></rect>
                    </g>
                    <polygon id="Shape" fill="#D4D6D8" points="211.088 336.333 248.708 364.406 286.912 336.333 288.773 323.167 248.75 317.917 209.227 323.167"></polygon>
                    <g transform="translate(160.000000, 62.000000)" id="Shape">
                        <path d="M127.89,221.039 L50.11,221.039 C62.246,257.627 51.088,274.333 51.088,274.333 L78,287.25 L100,287.25 L126.912,274.333 C126.912,274.333 115.754,257.627 127.89,221.039 L127.89,221.039 Z" fill="#E2A379"></path>
                        <path d="M168.753,114.096 C168.753,21.667 133.046,0.5 89.002,0.5 C44.954,0.5 9.247,21.667 9.247,114.096 C9.247,145.362 14.842,169.861 23.22,188.769 C41.652,230.367 73.555,244.905 89.002,244.905 C104.447,244.905 136.35,230.367 154.781,188.769 C163.158,169.861 168.753,145.362 168.753,114.096 L168.753,114.096 Z" fill="#F4B382"></path>
                        <path d="M111.5,207 C111.5,207 101.426,212.25 89,212.25 C76.574,212.25 66.5,207 66.5,207 C66.5,205.64 73.641,197.409 78.439,196.687 C81.433,196.236 89,199.167 89,199.167 C89,199.167 96.461,196.228 99.432,196.667 C104.303,197.387 111.5,207 111.5,207 L111.5,207 Z" fill="#E24444"></path>
                        <path d="M111.5,207 C111.5,207 101.426,216.125 89,216.125 C76.574,216.125 66.5,207 66.5,207 C66.5,207 68.825,204.193 81.975,203.383 C84.192,203.246 87.076,205 89,205 C90.666,205 93.176,203.227 95.127,203.332 C108.783,204.065 111.5,207 111.5,207 L111.5,207 Z" fill="#D33D3D"></path>
                        <path d="M51.088,274.333 C51.088,274.333 67.916,302.406 88.708,302.406 C109.5,302.406 126.912,274.333 126.912,274.333 L88.75,255.916 L51.088,274.333 L51.088,274.333 Z" fill="#E2A379"></path>
                        <g transform="translate(0.000000, 116.000000)" fill="#F4B382">
                            <path d="M1.564,30.629 C5.867,55.788 11.209,56.958 18.832,55.654 L10.686,0.883 C3.062,2.187 -2.736,5.47 1.564,30.629 L1.564,30.629 Z"></path>
                            <path d="M167.412,0.883 L159.266,55.654 C166.891,56.958 172.233,55.788 176.534,30.629 C180.836,5.47 175.035,2.187 167.412,0.883 L167.412,0.883 Z"></path>
                        </g>
                        <path d="M171.666,118 C172.418,60 157.723,33.968 157.723,33.968 C144.691,8.915 122.216,0.5 89,0.5 C35.981,0.5 9.836,22.625 6.849,97.154 C6.606,103.219 6.438,109.81 6.5,116.584 C6.5,116.584 89,91.501 89,57.853 C89,91.5 171.666,118 171.666,118 L171.666,118 Z" fill="#3A1D12"></path>
                        <g transform="translate(6.000000, 110.000000)" fill="#3A1D12">
                            <path d="M9.667,12 C9.24,9.301 9.177,6.834 9.248,4.853 C9.351,2.002 9.734,0.166 9.734,0.166 L0.359,3.666 C0.341,5.094 0.334,6.538 0.334,7.999 C0.334,7.999 1.346,7.674 3.133,7.055 C3.048,7.084 2.958,7.116 2.877,7.143 C4.165,9.333 5.78,12.695 7.334,17.665 C7.334,17.667 10.996,20.395 9.667,12 L9.667,12 Z"></path>
                            <path d="M156.791,4.875 C156.861,6.853 156.797,9.311 156.371,12.001 C155.043,20.395 158.705,17.668 158.705,17.668 C160.255,12.708 161.859,9.346 163.137,7.152 C164.756,7.709 165.666,8.001 165.666,8.001 C165.666,6.535 165.658,5.086 165.641,3.654 L156.304,0.168 C156.304,0.167 156.689,2.012 156.791,4.875"></path>
                        </g>
                    </g>
                    <path d="M249.293,444.333 C268.753,444.333 290.832,336.333 290.832,336.333 L248.889,349.25 L207.584,336.333 C207.584,336.333 229.832,444.333 249.293,444.333 L249.293,444.333 Z" id="Shape" fill="#C7C8C9"></path>
                    <path d="M249.293,444.333 L248.889,349.25 L203,336.333 C203,336.333 249.187,444.333 249.293,444.333 L249.293,444.333 Z" id="Shape" fill="#D4D6D8"></path>
                    <path d="M306.666,338.713 L288.773,323.166 L248.979,349.249 C248.979,349.249 283.009,359.675 283.177,359.508 L306.666,338.713 L306.666,338.713 Z" id="Shape" fill="#F3FAFF"></path>
                    <path d="M191.333,338.713 L209.227,323.166 L248.98,349.249 C248.98,349.249 214.991,359.675 214.823,359.508 L191.333,338.713 L191.333,338.713 Z" id="Shape" fill="#F3FAFF"></path>
                    <path d="M197.5,333.292 L185,339.73 L193,395 L209.334,391.333 L197.334,406 L249,459.416 L248.979,444.333 C248.979,444.333 214.99,359.676 214.822,359.509 L197.5,333.292 L197.5,333.292 Z" id="Shape" fill="#4A4A54"></path>
                    <path d="M300.5,333.292 L313,339.73 L305,395 L288.668,391.333 L300.668,406 L249,459.416 L249.021,444.333 C249.021,444.333 283.01,359.676 283.177,359.509 L300.5,333.292 L300.5,333.292 Z" id="Shape" fill="#4A4A54"></path>
                </g>
            </g>
        </g>
    </g>
</svg>