<?xml version="1.0" encoding="UTF-8"?>
<svg width="494px" height="494px" viewBox="0 0 494 494" version="1.1" xmlns="http://www.w3.org/2000/svg" xmlns:xlink="http://www.w3.org/1999/xlink">
    <!-- Generator: Sketch 41 (35326) - http://www.bohemiancoding.com/sketch -->
    <title>font</title>
    <desc>Created with Sketch.</desc>
    <defs></defs>
    <g id="Page-1" stroke="none" stroke-width="1" fill="none" fill-rule="evenodd">
        <g id="font">
            <g id="Layer_1">
                <g id="Group">
                    <circle id="Oval" fill="#AEB7C2" cx="247.322922" cy="246.926078" r="246.404953"></circle>
                    <path d="M347.253625,111.781328 L350.101562,172.191062 L336.060297,172.198844 C334.753047,161.561875 332.982813,153.959594 330.741813,149.403672 C327.080734,142.054281 322.209672,136.646312 316.128625,133.156422 C310.047578,129.674312 302.048453,127.935203 292.13125,127.935203 L259.485016,127.927422 L259.485016,317.299703 C259.485016,333.126766 261.193,343.005062 264.612859,346.934594 C269.421672,352.253078 276.833312,357.178609 286.84,357.178609 L295.768984,357.178609 L295.768984,369.3835 L186.535797,369.3835 L186.535797,357.178609 L195.655422,357.178609 C206.545281,357.178609 214.272063,351.622797 218.831875,345.035969 C221.621453,340.985828 223.010406,331.737812 223.010406,317.299703 L223.010406,127.931312 L195.425875,127.939094 C184.209203,127.939094 176.237312,128.830047 171.517984,130.600281 C165.370797,133.008578 160.118453,137.630641 155.749281,144.466469 C151.380109,151.302297 148.781172,160.554203 147.96025,172.202734 L133.911203,172.194953 L136.949781,111.785219 L347.253625,111.785219 L347.253625,111.781328 Z" id="Shape" fill="#EA4949"></path>
                    <path d="M403.422578,359.777547 C403.422578,363.181844 400.664125,365.940297 397.259828,365.940297 L351.218172,365.940297 C347.813875,365.940297 345.055422,363.181844 345.055422,359.777547 L397.259828,307.580922 C400.664125,307.580922 403.422578,310.339375 403.422578,313.743672 L403.422578,359.777547 L403.422578,359.777547 Z" id="Shape" fill="#EA4949"></path>
                </g>
            </g>
        </g>
    </g>
</svg>