<?xml version="1.0" encoding="UTF-8"?>
<svg width="498px" height="498px" viewBox="0 0 498 498" version="1.1" xmlns="http://www.w3.org/2000/svg" xmlns:xlink="http://www.w3.org/1999/xlink">
    <!-- Generator: Sketch 41 (35326) - http://www.bohemiancoding.com/sketch -->
    <title>male04</title>
    <desc>Created with Sketch.</desc>
    <defs></defs>
    <g id="Page-1" stroke="none" stroke-width="1" fill="none" fill-rule="evenodd">
        <g id="male04">
            <g id="Layer_1">
                <g id="Group">
                    <path d="M497.079,249.006 C497.079,111.984 386.009,0.924 249.003,0.924 C111.991,0.924 0.921,111.984 0.921,249.006 C0.921,386.007 111.991,497.076 249.003,497.076 C386.009,497.076 497.079,386.007 497.079,249.006 L497.079,249.006 Z" id="Shape" fill="#9B9B9B"></path>
                    <polygon id="Shape" fill="#C7C8C9" points="211.088 336.333 248.708 364.406 286.912 336.333 288.773 323.167 248.75 317.917 209.227 323.167"></polygon>
                    <path d="M249.003,497.076 C319.207,497.076 382.592,467.905 427.722,421.034 C424.967,405.903 422.078,392.133 419.438,383.654 C410.944,356.375 338.241,334.321 248.613,334.321 C158.985,334.321 87.054,356.375 78.561,383.654 C75.921,392.133 73.032,405.901 70.278,421.031 C115.407,467.904 178.795,497.076 249.003,497.076 L249.003,497.076 Z" id="Shape" fill="#334D5C"></path>
                    <path d="M249.003,497.076 C249.003,497.076 338.24,334.321 248.612,334.321 C158.984,334.321 249.003,497.076 249.003,497.076 L249.003,497.076 Z" id="Shape" fill="#E4E9ED"></path>
                    <polygon id="Shape" fill="#172023" points="248.969 361.396 233.25 369.338 248.969 394.938 264.688 369.338"></polygon>
                    <path d="M287.89,283.039 L210.11,283.039 C222.246,319.627 211.088,336.333 211.088,336.333 L238,342.396 L260,342.396 L286.912,336.334 C286.912,336.333 275.754,319.627 287.89,283.039 L287.89,283.039 Z" id="Shape" fill="#E2A379"></path>
                    <path d="M211.088,336.333 C211.088,336.333 227.916,364.406 248.708,364.406 C269.5,364.406 286.912,336.333 286.912,336.333 L248.75,317.916 L211.088,336.333 L211.088,336.333 Z" id="Shape" fill="#E2A379"></path>
                    <g transform="translate(150.000000, 62.000000)" id="Shape">
                        <path d="M187.253,114.096 C187.253,21.667 147.74,0.5 99.001,0.5 C50.26,0.5 10.747,21.667 10.747,114.096 C10.747,145.362 16.937,169.861 26.209,188.769 C46.605,230.367 81.909,244.905 99.001,244.905 C116.093,244.905 151.397,230.367 171.791,188.769 C181.062,169.861 187.253,145.362 187.253,114.096 L187.253,114.096 Z" fill="#4C230C"></path>
                        <path d="M187.253,114.096 C187.253,21.667 147.74,0.5 99.001,0.5 C50.26,0.5 10.747,21.667 10.747,114.096 C10.747,145.362 16.937,169.861 26.209,188.769 C46.605,230.367 99.001,230.159 99.001,230.159 C99.001,230.159 151.397,230.367 171.791,188.769 C181.062,169.861 187.253,145.362 187.253,114.096 L187.253,114.096 Z" fill="#F4B382"></path>
                        <path d="M21.334,177.56 C12.895,179.003 6.982,177.708 2.222,149.862 C-2.538,122.016 3.879,118.383 12.318,116.94 L21.334,177.56 L21.334,177.56 Z" fill="#F4B382"></path>
                        <path d="M176.766,177.56 C185.204,179.003 191.116,177.708 195.877,149.862 C200.638,122.016 194.219,118.383 185.781,116.94 L176.766,177.56 L176.766,177.56 Z" fill="#F4B382"></path>
                    </g>
                    <g transform="translate(222.000000, 250.000000)" id="Shape">
                        <path d="M53.666,7.882 C53.666,10.437 41.727,17.422 27,17.422 C12.273,17.422 0.334,10.437 0.334,7.882 C0.334,6.309 8.796,1.802 14.483,0.966 C18.033,0.445 27,3.834 27,3.834 C27,3.834 35.843,0.436 39.363,0.943 C45.136,1.777 53.666,7.882 53.666,7.882 L53.666,7.882 Z" fill="#E5A173"></path>
                        <path d="M53.666,7.882 C53.666,10.437 41.727,20.313 27,20.313 C12.273,20.313 0.334,10.437 0.334,7.882 C0.334,7.882 11.197,9.157 27,9.157 C42.803,9.157 53.666,7.882 53.666,7.882 L53.666,7.882 Z" fill="#D89364"></path>
                    </g>
                    <path d="M337.253,176.096 C337.253,83.667 307.002,60 249.001,60 C191,60 160.747,83.667 160.747,176.096 L199.5,107.697 C199.5,107.697 227,112 249,112 C271,112 295.158,107.697 295.158,107.697 L337.253,176.096 L337.253,176.096 Z" id="Shape" fill="#4C230C"></path>
                    <path d="M166.375,141.688 C162.125,152.563 160.747,166.047 160.747,179.167 C160.747,179.167 169.5,177.25 169.5,181.75 L172.25,209.375 L176.125,207.5 C175.875,184.5 181,139.5 181,139.5 L166.375,141.688 L166.375,141.688 Z" id="Shape" fill="#4C230C"></path>
                    <path d="M331.724,141.688 C335.974,152.563 337.352,166.047 337.352,179.167 C337.352,179.167 328.599,177.25 328.599,181.75 L325.849,209.375 L321.974,207.5 C322.224,184.5 317.099,141.333 317.099,141.333 L331.724,141.688 L331.724,141.688 Z" id="Shape" fill="#4C230C"></path>
                    <polygon id="Shape" fill="#D4D6D8" points="306.666 338.713 288.773 323.167 248.979 364.75 285.598 375.009"></polygon>
                    <polygon id="Shape" fill="#D4D6D8" points="191.333 338.713 209.227 323.167 248.979 364.75 212.402 375.009"></polygon>
                    <g transform="translate(165.000000, 333.000000)" id="Shape" fill="#2A3F49">
                        <polygon points="33.616 3.708 33.61 3.708"></polygon>
                        <path d="M32.5,0.292 L33.616,3.709 L83.979,157.834 L83.988,164.077 C77.324,164.077 70.723,163.81 64.192,163.294 L0.5,54.001 L20,5.5 L32.5,0.292 L32.5,0.292 Z"></path>
                        <path d="M147.422,5.259 C147.415,5.258 147.407,5.257 147.4,5.256 C147.407,5.257 147.415,5.258 147.422,5.259 L147.422,5.259 L147.422,5.259 Z"></path>
                        <path d="M140.838,4.463 C140.928,4.473 141.018,4.484 141.108,4.494 C141.018,4.484 140.928,4.474 140.838,4.463 L140.838,4.463 Z"></path>
                        <polygon points="134.362 3.774 134.362 3.774 134.372 3.775"></polygon>
                        <path d="M148,5.5 L147.423,5.259 C147.418,5.259 147.413,5.258 147.408,5.257 C147.413,5.258 147.418,5.258 147.422,5.259 L135.5,0.292 L134.362,3.775 L84.022,157.834 L84.013,164.077 C90.677,164.077 97.278,163.81 103.808,163.295 L167.5,54.001 L148,5.5 L148,5.5 Z"></path>
                    </g>
                    <path d="M249.021,490.833 L268.78,430.364 C268.488,426.656 268.206,423.277 267.943,420.365 C265.901,397.731 252.548,381.833 252.548,381.833 L249.031,381.833 L249.005,382.575 L249.005,381.833 L245.488,381.833 C245.488,381.833 232.134,397.731 230.092,420.365 C229.827,423.301 229.543,426.71 229.248,430.453 L248.978,490.832 L249.021,490.832 L249.021,490.833 Z" id="Shape" fill="#172023"></path>
                    <path d="M249,244.833 C248.833,244.832 246.957,242.877 246.189,242.91 C228.779,243.663 213,246.503 213,251.833 C213,253.508 211.686,265.583 217.785,262.083 C222.75,255.583 233.974,250.656 246.004,250.208 C246.981,250.172 247.981,251.01 249,251.02 C250.064,251.01 251.106,250.173 252.125,250.213 C264.087,250.682 274.75,254.832 280.215,262.082 C286.315,265.582 285,253.507 285,251.832 C285,246.515 269.297,243.695 251.938,242.915 C251.128,242.88 249.167,244.833 249,244.833 L249,244.833 Z" id="Shape" fill="#4C230C"></path>
                </g>
            </g>
        </g>
    </g>
</svg>