<?xml version="1.0" encoding="UTF-8"?>
<svg width="498px" height="498px" viewBox="0 0 498 498" version="1.1" xmlns="http://www.w3.org/2000/svg" xmlns:xlink="http://www.w3.org/1999/xlink">
    <!-- Generator: Sketch 41 (35326) - http://www.bohemiancoding.com/sketch -->
    <title>male03</title>
    <desc>Created with Sketch.</desc>
    <defs></defs>
    <g id="Page-1" stroke="none" stroke-width="1" fill="none" fill-rule="evenodd">
        <g id="male03">
            <g id="Layer_1">
                <g id="Group">
                    <path d="M497.079,249.006 C497.079,111.984 386.009,0.924 249.003,0.924 C111.991,0.924 0.921,111.984 0.921,249.006 C0.921,386.007 111.991,497.076 249.003,497.076 C386.009,497.076 497.079,386.007 497.079,249.006 L497.079,249.006 Z" id="Shape" fill="#AEB7C2"></path>
                    <path d="M249.003,497.076 C319.207,497.076 382.592,467.905 427.722,421.033 C424.967,405.902 422.078,392.133 419.438,383.654 C410.944,356.375 338.241,334.32 248.613,334.32 C158.985,334.32 87.054,356.375 78.561,383.654 C75.921,392.133 73.032,405.9 70.278,421.031 C115.407,467.904 178.795,497.076 249.003,497.076 L249.003,497.076 Z" id="Shape" fill="#295D66"></path>
                    <path d="M294.764,337.06 C280.281,335.288 264.793,334.321 248.666,334.321 C232.749,334.321 217.482,335.261 203.208,336.991 L249,428 L294.764,337.06 L294.764,337.06 Z" id="Shape" fill="#DADDE0"></path>
                    <rect id="Rectangle-path" fill="#DEE0E2" x="206.004" y="325.832" width="85.992" height="25.001"></rect>
                    <path d="M249,413 L211.25,336.167 C211.25,336.167 220.5,323.75 248.667,323.75 C276.834,323.75 286.792,336.209 286.792,336.209 L249,413 L249,413 Z" id="Shape" fill="#E2A379"></path>
                    <path d="M169,358.088 L206.008,325.832 L237.958,389.732 C237.958,389.732 212.743,396.848 212.434,396.542 L169,358.088 L169,358.088 Z" id="Shape" fill="#DADDE0"></path>
                    <path d="M328.957,358.088 L291.949,325.832 L259.999,389.732 C259.999,389.732 285.214,396.848 285.523,396.542 L328.957,358.088 L328.957,358.088 Z" id="Shape" fill="#DADDE0"></path>
                    <path d="M287.89,283.039 L210.11,283.039 C222.246,319.627 211.088,336.334 211.088,336.334 C211.088,336.334 228,342.396 249,342.396 C270,342.396 286.912,336.334 286.912,336.334 C286.912,336.334 275.754,319.627 287.89,283.039 L287.89,283.039 Z" id="Shape" fill="#E2A379"></path>
                    <g transform="translate(150.000000, 60.000000)" id="Shape">
                        <path d="M187.253,116.096 C187.253,23.667 147.74,2.5 99.001,2.5 C50.26,2.5 10.747,23.667 10.747,116.096 C10.747,147.362 16.937,171.862 26.209,190.77 C46.605,232.368 81.909,246.906 99.001,246.906 C116.093,246.906 151.397,232.368 171.791,190.77 C181.062,171.861 187.253,147.362 187.253,116.096 L187.253,116.096 Z" fill="#F4B382"></path>
                        <path d="M187.253,116.096 C187.253,23.667 157.002,0 99.001,0 C41,0 10.747,23.667 10.747,116.096 C10.747,116.096 27,82 39,63 C51,44 77,44.667 77,44.667 L126,44.667 C126,44.667 153,45 160.5,63 L187.253,116.096 L187.253,116.096 Z" fill="#47200D"></path>
                        <g transform="translate(98.000000, 233.000000)" fill="#191919">
                            <path d="M0.5,0.834 L1,0.834 C0.832,0.834 0.662,0.822 0.493,0.818 C0.496,0.823 0.498,0.828 0.5,0.834 L0.5,0.834 Z"></path>
                            <path d="M1.5,0.834 C1.502,0.828 1.504,0.823 1.507,0.818 C1.338,0.822 1.168,0.834 1,0.834 L1.5,0.834 L1.5,0.834 Z"></path>
                        </g>
                        <path d="M21.334,179.561 C12.895,181.003 6.982,179.708 2.222,151.863 C-2.538,124.018 3.879,120.384 12.318,118.94 L21.334,179.561 L21.334,179.561 Z" fill="#F4B382"></path>
                        <path d="M176.766,179.561 C185.204,181.003 191.116,179.708 195.877,151.863 C200.638,124.017 194.219,120.384 185.781,118.94 L176.766,179.561 L176.766,179.561 Z" fill="#F4B382"></path>
                    </g>
                    <g transform="translate(222.000000, 250.000000)" id="Shape">
                        <path d="M53.666,7.883 C53.666,10.438 41.727,17.422 27,17.422 C12.273,17.422 0.334,10.438 0.334,7.883 C0.334,6.31 8.797,1.803 14.482,0.967 C18.033,0.446 27,3.834 27,3.834 C27,3.834 35.843,0.436 39.363,0.943 C45.137,1.777 53.666,7.883 53.666,7.883 L53.666,7.883 Z" fill="#E5A173"></path>
                        <path d="M53.666,7.883 C53.666,10.438 41.727,20.313 27,20.313 C12.273,20.313 0.334,10.438 0.334,7.883 C0.334,7.883 11.197,9.157 27,9.157 C42.803,9.157 53.666,7.883 53.666,7.883 L53.666,7.883 Z" fill="#D89364"></path>
                    </g>
                    <path d="M169.5,181.75 L172.25,209.375 L176.125,207.5 C175.875,184.5 178.74,133.683 178.74,133.683 L161.415,156.339 C160.977,162.534 160.747,169.108 160.747,176.096 C160.747,177.003 160.769,177.885 160.78,178.78 C164.664,178.663 169.5,179.056 169.5,181.75 L169.5,181.75 Z" id="Shape" fill="#47200D"></path>
                    <path d="M328.488,181.75 L325.738,209.375 L321.863,207.5 C322.113,184.5 319.248,124.684 319.248,124.684 L336.573,156.339 C337.011,162.534 337.241,169.108 337.241,176.096 C337.241,177.003 337.219,177.885 337.208,178.78 C333.324,178.663 328.488,179.056 328.488,181.75 L328.488,181.75 Z" id="Shape" fill="#47200D"></path>
                    <g transform="translate(299.000000, 336.000000)" id="Shape" fill="#FFFFFF">
                        <path d="M13.422,2.259 C13.414,2.258 13.406,2.257 13.4,2.256 C13.407,2.257 13.415,2.258 13.422,2.259 L13.422,2.259 L13.422,2.259 Z"></path>
                        <polygon points="0.361 0.774 0.361 0.774 0.372 0.775"></polygon>
                    </g>
                </g>
            </g>
        </g>
    </g>
</svg>