<?xml version="1.0" encoding="UTF-8"?>
<svg width="498px" height="498px" viewBox="0 0 498 498" version="1.1" xmlns="http://www.w3.org/2000/svg" xmlns:xlink="http://www.w3.org/1999/xlink">
    <!-- Generator: Sketch 41 (35326) - http://www.bohemiancoding.com/sketch -->
    <title>male05</title>
    <desc>Created with Sketch.</desc>
    <defs></defs>
    <g id="Page-1" stroke="none" stroke-width="1" fill="none" fill-rule="evenodd">
        <g id="male05">
            <g id="Layer_1">
                <g id="Group">
                    <path d="M497.079,249.006 C497.079,111.984 386.009,0.924 249.003,0.924 C111.991,0.924 0.921,111.984 0.921,249.006 C0.921,386.007 111.991,497.076 249.003,497.076 C386.009,497.076 497.079,386.007 497.079,249.006 L497.079,249.006 Z" id="Shape" fill="#AEB7C2"></path>
                    <path d="M249.003,497.076 C319.207,497.076 382.592,467.905 427.722,421.034 C424.967,405.903 422.078,392.133 419.438,383.654 C410.944,356.375 338.241,334.321 248.613,334.321 C158.985,334.321 87.054,356.375 78.561,383.654 C75.921,392.133 73.032,405.901 70.278,421.031 C115.407,467.904 178.795,497.076 249.003,497.076 L249.003,497.076 Z" id="Shape" fill="#1D1D1E"></path>
                    <g transform="translate(267.000000, 450.000000)">
                        <path d="M77,1.63 L0.5,1.63 L0.5,46.382 C27.423,44.397 53.15,38.121 77,28.223 L77,1.63 L77,1.63 Z" id="Shape" fill="#D6E7F2"></path>
                        <rect id="Rectangle-path" fill="#556877" x="0.5" y="0.766" width="76.5" height="6.223"></rect>
                        <g transform="translate(36.000000, 13.000000)" id="Shape" fill="#556877">
                            <path d="M33.336,3.766 L2.154,3.766 C1.279,3.766 0.569,3.057 0.569,2.181 C0.569,1.305 1.279,0.595 2.154,0.595 L33.336,0.595 C34.212,0.595 34.922,1.305 34.922,2.181 C34.922,3.056 34.212,3.766 33.336,3.766 L33.336,3.766 Z"></path>
                            <path d="M33.336,15.657 L2.154,15.657 C1.279,15.657 0.569,14.947 0.569,14.071 C0.569,13.196 1.279,12.486 2.154,12.486 L33.336,12.486 C34.212,12.486 34.922,13.196 34.922,14.071 C34.922,14.947 34.212,15.657 33.336,15.657 L33.336,15.657 Z"></path>
                            <path d="M2.154,24.377 C1.279,24.377 0.569,25.086 0.569,25.963 C0.569,26.838 1.279,27.548 2.154,27.548 L2.708,27.548 C6.806,26.59 10.867,25.536 14.883,24.377 L2.154,24.377 L2.154,24.377 Z"></path>
                        </g>
                        <rect id="Rectangle-path" fill="#556877" x="6.445" y="12.009" width="23.387" height="29.728"></rect>
                    </g>
                    <path d="M249.084,444.333 C268.642,444.333 290.832,336.333 290.832,336.333 L248.678,363.073 L207.166,336.333 C207.166,336.333 229.525,444.333 249.084,444.333 L249.084,444.333 Z" id="Shape" fill="#D4D6D8"></path>
                    <polygon id="Shape" fill="#D4D6D8" points="211.088 336.333 248.708 364.406 286.912 336.333 288.773 323.167 248.75 317.917 209.227 323.167"></polygon>
                    <path d="M287.89,283.039 L210.11,283.039 C222.246,319.627 211.088,336.333 211.088,336.333 L238,342.396 L260,342.396 L286.912,336.334 C286.912,336.333 275.754,319.627 287.89,283.039 L287.89,283.039 Z" id="Shape" fill="#E2A379"></path>
                    <polygon id="Shape" fill="#F3FAFF" points="283 359.667 288.773 323.167 306.666 338.713"></polygon>
                    <polygon id="Shape" fill="#F3FAFF" points="215 359.667 209.227 323.167 191.333 338.713"></polygon>
                    <path d="M306.666,338.713 L288.773,323.166 L248.979,342.395 C248.979,342.395 283.009,359.675 283.177,359.508 L306.666,338.713 L306.666,338.713 Z" id="Shape" fill="#F3FAFF"></path>
                    <path d="M191.333,338.713 L209.227,323.166 L248.98,342.395 C248.98,342.395 214.991,359.675 214.823,359.508 L191.333,338.713 L191.333,338.713 Z" id="Shape" fill="#F3FAFF"></path>
                    <polygon id="Shape" fill="#86B4D1" points="248.969 342.396 233.25 350.338 248.969 375.938 264.688 350.338"></polygon>
                    <path d="M249.076,444.333 C254.163,444.333 259.447,432.822 264.394,416.438 L253.031,362.833 L244.89,362.833 L233.627,416.122 C238.621,432.679 243.955,444.333 249.076,444.333 L249.076,444.333 Z" id="Shape" fill="#86B4D1"></path>
                    <path d="M197.5,333.292 L185,339.73 L193,395 L209.334,391.333 L197.334,406 L249,459.416 L248.979,444.333 C248.979,444.333 214.99,359.676 214.822,359.509 L197.5,333.292 L197.5,333.292 Z" id="Shape" fill="#4A4A54"></path>
                    <path d="M300.5,333.292 L313,339.73 L305,395 L288.667,391.333 L300.667,406 L249,459.416 L249.021,444.333 C249.021,444.333 283.01,359.676 283.177,359.509 L300.5,333.292 L300.5,333.292 Z" id="Shape" fill="#4A4A54"></path>
                    <path d="M337.253,176.096 C337.253,83.667 297.74,62.5 249.001,62.5 C200.26,62.5 160.747,83.667 160.747,176.096 C160.747,207.362 166.937,231.861 176.209,250.769 C196.605,292.367 231.909,306.905 249.001,306.905 C266.093,306.905 301.397,292.367 321.791,250.769 C331.062,231.861 337.253,207.362 337.253,176.096 L337.253,176.096 Z" id="Shape" fill="#F4B382"></path>
                    <g transform="translate(223.000000, 259.000000)" id="Shape">
                        <path d="M51.999,7.157 C51.999,9.453 40.359,15.735 26,15.735 C11.641,15.735 0.001,9.454 0.001,7.157 C0.001,5.742 8.252,1.69 13.797,0.939 C17.258,0.47 26,3.518 26,3.518 C26,3.518 34.621,0.462 38.055,0.919 C43.683,1.667 51.999,7.157 51.999,7.157 L51.999,7.157 Z" fill="#D89364"></path>
                        <path d="M51.999,7.157 C51.999,9.453 40.359,18.334 26,18.334 C11.641,18.334 0.001,9.454 0.001,7.157 C0.001,7.157 10.592,8.303 26,8.303 C41.408,8.303 51.999,7.157 51.999,7.157 L51.999,7.157 Z" fill="#CE8757"></path>
                    </g>
                    <path d="M171.334,239.56 C162.895,241.003 156.982,239.708 152.222,211.862 C147.462,184.016 153.879,180.383 162.318,178.94 L171.334,239.56 L171.334,239.56 Z" id="Shape" fill="#F4B382"></path>
                    <path d="M337.253,179.167 C337.253,124.667 318.883,94.08 318.883,94.08 C311.332,69.332 277.443,61 249.001,61 C200.26,61 160.747,92.75 160.747,179.167 L181,175.75 C181,173.121 278,117 278,117 C287.667,122.667 303,119 303,119 C303,115.196 317.099,175.75 317.099,175.75 L337.253,179.167 L337.253,179.167 Z" id="Shape" fill="#51250D"></path>
                    <path d="M166.375,141.688 C162.125,152.563 160.747,166.047 160.747,179.167 C160.747,179.167 169.5,177.25 169.5,181.75 L172.25,209.375 L176.125,207.5 C175.875,184.5 181,175.75 181,175.75 L166.375,141.688 L166.375,141.688 Z" id="Shape" fill="#51250D"></path>
                    <path d="M326.766,239.56 C335.204,241.003 341.116,239.708 345.877,211.862 C350.638,184.016 344.219,180.383 335.781,178.94 L326.766,239.56 L326.766,239.56 Z" id="Shape" fill="#F4B382"></path>
                    <path d="M331.724,141.688 C335.974,152.563 337.352,166.047 337.352,179.167 C337.352,179.167 328.599,177.25 328.599,181.75 L325.849,209.375 L321.974,207.5 C322.224,184.5 317.099,175.75 317.099,175.75 L331.724,141.688 L331.724,141.688 Z" id="Shape" fill="#51250D"></path>
                    <g transform="translate(150.000000, 30.000000)" id="Shape">
                        <g transform="translate(9.000000, 10.000000)">
                            <path d="M177.074,108.78 C180.285,108.78 178.608,55.968 166.012,37.405 C152.474,17.455 115.5,0.112 90.168,0.112 C64.838,0.112 27.691,17.455 14.153,37.405 C1.556,55.968 -1.719,108.78 2.92,108.78 L177.074,108.78 L177.074,108.78 Z" fill="#E5AA17"></path>
                            <path d="M2.044,123.398 C2.044,123.398 39.948,127.274 90.094,127.274 C140.239,127.274 178.041,123.398 178.041,123.398 L178.221,102.352 L1.137,102.352 L2.044,123.398 L2.044,123.398 Z" fill="#EFC76C"></path>
                        </g>
                        <path d="M129.688,39.911 C129.688,47.007 115.946,126.809 98.997,126.809 L98.997,126.809 C82.047,126.809 68.306,47.006 68.306,39.911 L68.306,17.25 C68.306,10.154 82.047,6.722 98.997,6.722 L98.997,6.722 C115.946,6.722 129.688,10.155 129.688,17.25 L129.688,39.911 L129.688,39.911 Z" fill="#E5AA17"></path>
                        <path d="M68.197,39.911 C67.44,38.023 67.045,36.134 66.777,34.246 C66.608,33.302 66.576,32.357 66.474,31.413 C66.421,30.469 66.409,29.525 66.379,28.58 C66.413,27.636 66.419,26.692 66.48,25.748 C66.578,24.804 66.615,23.86 66.783,22.915 C67.052,21.027 67.445,19.138 68.197,17.25 L68.213,17.213 C68.234,17.159 68.294,17.134 68.348,17.155 C68.388,17.171 68.412,17.209 68.413,17.25 L68.519,28.58 L68.413,39.911 C68.412,39.968 68.365,40.014 68.309,40.014 C68.265,40.014 68.229,39.987 68.213,39.949 L68.197,39.911 L68.197,39.911 Z" fill="#C18D17"></path>
                        <path d="M129.796,17.25 C130.553,19.138 130.949,21.027 131.216,22.915 C131.385,23.86 131.418,24.804 131.52,25.748 C131.572,26.692 131.586,27.636 131.615,28.58 C131.581,29.525 131.574,30.469 131.514,31.413 C131.416,32.357 131.378,33.302 131.211,34.246 C130.941,36.134 130.549,38.023 129.796,39.911 L129.78,39.948 C129.759,40.001 129.7,40.027 129.646,40.006 C129.605,39.99 129.582,39.952 129.581,39.911 L129.475,28.58 L129.581,17.25 C129.582,17.193 129.629,17.147 129.685,17.147 C129.729,17.147 129.764,17.174 129.78,17.212 L129.796,17.25 L129.796,17.25 Z" fill="#C18D17"></path>
                        <path d="M129.331,110.394 C129.331,117.489 109.049,123.241 98.997,123.241 L98.997,123.241 C88.945,123.241 68.662,117.489 68.662,110.394 L80.797,13.682 C80.797,6.586 88.945,0.834 98.997,0.834 L98.997,0.834 C109.049,0.834 117.197,6.586 117.197,13.682 L129.331,110.394 L129.331,110.394 Z" fill="#F4B21E"></path>
                        <path d="M0.337,123.598 C0.337,123.598 42.854,127.946 99.101,127.946 C155.348,127.946 197.748,123.598 197.748,123.598 C197.748,123.598 193.896,100.056 183.389,100.056 C170.815,99.54 134.799,107.548 98.997,107.539 C63.713,107.531 28.636,99.499 16.407,99.991 C4.342,99.991 0.337,123.598 0.337,123.598 L0.337,123.598 Z" fill="#E5AA17"></path>
                        <path d="M10.136,102.721 C17.492,103.29 24.844,103.839 32.205,104.248 C39.56,104.72 46.921,105.123 54.284,105.429 C69.006,106.061 83.735,106.545 98.464,106.47 C113.193,106.563 127.922,106.104 142.644,105.469 C150.006,105.165 157.366,104.763 164.721,104.282 C172.082,103.867 179.434,103.31 186.788,102.722 C179.486,103.792 172.145,104.559 164.805,105.328 C157.457,106.021 150.1,106.608 142.734,107.113 C128.003,108.09 113.235,108.534 98.463,108.609 C83.692,108.505 68.926,108.052 54.193,107.067 C46.829,106.561 39.47,105.979 32.123,105.29 C24.782,104.526 17.44,103.77 10.136,102.721 L10.136,102.721 Z" fill="#C18D17"></path>
                    </g>
                </g>
            </g>
        </g>
    </g>
</svg>